<?xml version="1.0" standalone="no"?>
<!DOCTYPE svg PUBLIC "-//W3C//DTD SVG 20010904//EN"
 "http://www.w3.org/TR/2001/REC-SVG-20010904/DTD/svg10.dtd">
<svg version="1.0" xmlns="http://www.w3.org/2000/svg"
 width="1080.000000pt" height="1080.000000pt" viewBox="0 0 1080.000000 1080.000000"
 preserveAspectRatio="xMidYMid meet">

<g transform="translate(0.000000,1080.000000) scale(0.100000,-0.100000)"
fill="#ffffff" stroke="none">
<path d="M5185 10164 c11 -9 46 -30 77 -47 60 -33 71 -47 39 -47 -11 0 -48 -9
-82 -20 -35 -10 -65 -18 -67 -16 -1 2 13 14 33 26 20 12 34 24 32 26 -8 8
-384 -189 -427 -223 -2 -2 1 -8 8 -12 15 -9 -52 -59 -123 -90 -74 -33 -205
-81 -205 -75 0 12 130 142 255 254 129 116 126 137 -4 28 -217 -182 -422 -374
-490 -459 -20 -25 -42 -44 -48 -42 -5 2 -18 -12 -27 -31 -9 -19 -21 -38 -26
-41 -13 -8 -13 -101 0 -124 12 -24 13 -64 11 -389 -2 -260 7 -367 20 -237 4
43 6 29 5 -53 l0 -112 -37 57 c-21 32 -98 139 -173 238 -109 145 -150 209
-210 330 -42 83 -83 178 -93 212 -10 35 -21 63 -25 63 -13 0 -9 -35 12 -95 11
-32 18 -60 16 -62 -3 -4 -5 -1 -119 273 -65 155 -178 374 -194 374 -9 0 11
-47 43 -100 18 -30 73 -149 122 -265 49 -115 97 -226 107 -245 9 -19 13 -30 7
-25 -13 12 -142 270 -212 425 -29 63 -68 146 -87 183 -27 54 -32 72 -22 83 15
18 3 48 -16 40 -10 -3 -17 4 -22 25 -9 34 -29 36 -25 2 3 -22 3 -22 -29 -6
-39 20 -61 9 -70 -35 -8 -40 -1 -47 20 -20 17 20 17 18 16 -45 0 -38 -6 -72
-13 -79 -32 -32 -2 -58 34 -29 49 38 67 29 127 -61 70 -109 80 -127 123 -233
52 -128 191 -411 268 -543 62 -108 105 -171 284 -420 45 -63 82 -122 82 -133
0 -10 6 -19 13 -19 18 0 98 -125 108 -168 10 -44 7 -49 -34 -61 -18 -5 -40
-12 -49 -16 -12 -5 -18 -3 -18 7 0 8 -9 23 -20 33 -24 22 -48 14 -104 -36 -44
-38 -44 -65 -1 -90 34 -19 34 -29 -2 -81 -37 -55 -55 -238 -22 -238 14 0 10
-27 -5 -33 -19 -7 -11 -169 10 -211 7 -16 14 -37 14 -47 0 -10 6 -33 14 -51 7
-18 23 -73 35 -123 28 -111 60 -160 102 -151 26 5 31 0 86 -87 78 -125 154
-230 263 -367 51 -63 98 -129 106 -146 19 -44 54 -55 54 -18 0 14 -105 157
-169 230 -44 51 -172 237 -143 209 44 -44 225 -252 240 -277 9 -15 29 -32 44
-39 25 -10 28 -16 23 -41 -4 -17 -2 -35 5 -43 8 -10 11 -35 8 -70 -4 -44 -1
-58 11 -65 13 -8 12 -9 -6 -10 -38 0 -26 -16 30 -39 100 -41 122 -56 125 -90
2 -18 9 -31 17 -31 7 0 15 -5 17 -12 6 -18 28 1 28 24 0 18 -2 19 -16 7 -14
-12 -15 -8 -9 37 4 27 23 108 41 179 71 269 97 415 74 415 -5 0 -10 -1 -10 -2
-1 -2 -3 -19 -6 -40 -6 -38 -41 -178 -67 -263 l-15 -50 -1 63 c-1 34 3 62 7
62 4 0 12 24 18 53 10 50 56 228 60 235 2 2 46 -24 99 -58 62 -40 100 -59 106
-53 14 14 -13 72 -49 107 l-30 28 71 58 c82 66 136 120 119 120 -6 0 -26 -13
-44 -28 -18 -15 -64 -52 -102 -81 -62 -48 -70 -52 -84 -37 -14 14 -14 17 3 36
11 12 67 53 125 92 211 141 271 193 254 219 -4 7 -16 1 -33 -14 -14 -13 -89
-67 -166 -119 -77 -51 -162 -110 -190 -131 -53 -39 -66 -44 -63 -25 2 7 -8 14
-20 16 l-24 4 20 21 c24 27 162 293 162 313 0 22 -40 13 -54 -11 -6 -11 -31
-47 -56 -80 -24 -33 -58 -87 -75 -121 -29 -58 -32 -60 -60 -52 -17 4 -37 5
-46 3 -9 -3 -26 -2 -38 3 -21 8 -18 13 59 98 96 104 170 209 170 241 0 32 -17
29 -39 -8 -10 -17 -37 -51 -59 -77 -23 -26 -79 -94 -126 -151 -90 -111 -93
-123 -36 -136 16 -3 31 -13 34 -21 7 -18 102 -64 134 -64 32 0 27 -12 -19 -49
-28 -23 -39 -39 -37 -54 2 -14 10 -21 21 -21 12 1 16 -3 13 -15 -17 -59 -37
-157 -45 -221 -28 -222 -35 -275 -36 -277 -1 -2 -29 2 -63 8 l-63 11 6 107
c12 253 27 410 45 475 11 38 17 73 14 78 -32 51 -84 -132 -84 -296 0 -51 -3
-96 -7 -99 -3 -4 -21 14 -39 41 -18 26 -79 97 -136 158 -129 138 -214 243
-289 356 -52 80 -58 93 -67 170 -20 150 -22 221 -12 418 7 157 12 197 25 206
17 12 95 28 102 20 3 -2 7 -24 9 -47 5 -49 7 -54 30 -45 12 4 15 14 10 34 -7
34 -5 31 80 -113 36 -60 72 -135 81 -165 21 -74 88 -207 132 -266 37 -49 70
-72 58 -39 -5 12 2 9 25 -10 48 -41 47 -14 -4 68 -24 40 -68 124 -97 187 -61
130 -96 196 -122 225 -23 27 -72 150 -53 134 21 -17 29 -3 15 27 -6 15 -10 28
-9 30 8 7 196 47 232 49 22 1 42 7 44 13 2 7 8 12 14 12 5 0 39 12 76 26 36
15 67 23 69 17 2 -5 33 -62 68 -126 80 -143 188 -303 227 -337 l29 -25 -42
-32 c-24 -18 -53 -33 -66 -33 -35 0 -60 -74 -29 -86 8 -3 37 -28 64 -55 27
-27 54 -49 60 -49 6 0 18 13 27 30 10 19 20 27 30 24 8 -4 22 -1 30 6 17 14
17 15 33 -24 12 -26 11 -28 -6 -24 -22 6 -112 -60 -153 -112 -40 -52 -44 -73
-16 -105 29 -35 52 -29 93 25 42 54 102 100 131 100 30 0 38 21 24 62 l-12 33
39 -38 c93 -91 75 -2 -25 124 -48 60 -53 71 -53 117 0 28 -3 57 -6 66 -12 32
-24 14 -24 -37 0 -51 -2 -55 -58 -114 -54 -55 -60 -59 -78 -46 -10 8 -26 18
-34 23 -12 7 -10 14 14 39 16 16 34 29 39 28 6 -1 21 18 34 42 13 24 35 57 49
74 29 34 26 53 -17 112 -16 22 -55 76 -86 120 -115 163 -164 224 -205 259
l-43 36 28 0 c19 0 27 4 24 13 -5 13 -127 12 -207 -3 -25 -5 -46 -7 -48 -6 -1
2 28 21 65 42 54 31 69 45 71 66 4 32 -28 68 -59 68 -11 0 -82 -34 -156 -75
-75 -41 -138 -73 -141 -71 -12 13 -121 397 -126 445 -12 106 -71 465 -80 479
-3 5 1 39 10 75 l16 65 131 98 c160 121 284 196 528 319 145 74 188 101 191
117 4 25 128 82 223 102 34 7 59 18 58 24 -6 27 51 23 174 -12 95 -27 133 -43
148 -61 11 -13 58 -41 104 -61 47 -20 144 -67 215 -104 144 -75 203 -97 217
-83 6 6 -13 19 -48 33 -93 38 -349 177 -303 164 14 -3 118 -51 232 -105 113
-55 212 -99 219 -99 19 0 -55 52 -141 99 -41 22 -72 41 -68 41 3 0 59 -25 125
-54 65 -30 141 -60 168 -67 28 -6 61 -17 75 -24 35 -18 72 -22 77 -9 2 7 -6
14 -19 17 -13 4 -32 13 -43 22 -11 9 -15 15 -10 12 6 -2 43 -14 82 -27 l73
-24 25 -65 c43 -114 62 -184 105 -385 52 -238 124 -486 141 -486 12 0 12 0
-20 114 -31 109 -80 312 -107 441 -14 67 -83 292 -109 359 -15 35 53 -11 81
-56 95 -150 165 -341 255 -698 82 -323 84 -331 96 -338 6 -4 20 -45 32 -91 17
-68 21 -115 21 -237 l0 -151 -42 -44 c-23 -24 -34 -35 -25 -23 9 11 17 27 17
34 0 7 -30 -16 -67 -51 -38 -35 -97 -87 -132 -114 -35 -28 -78 -62 -95 -76
-45 -36 -97 -72 -100 -68 -1 2 -13 21 -25 42 -30 49 -46 43 -44 -18 2 -58 30
-102 62 -97 12 2 20 -1 19 -6 -2 -5 20 -45 47 -88 28 -43 50 -88 50 -99 0 -11
6 -20 12 -20 6 0 35 -33 64 -72 71 -99 105 -96 59 6 -11 24 -20 45 -20 46 0 2
33 13 73 25 109 33 224 79 237 95 7 8 8 20 4 27 -5 7 -9 69 -10 138 -1 107 0
117 8 70 22 -127 44 -214 53 -210 11 5 12 42 2 105 -3 22 -6 124 -6 227 -1
135 -4 190 -13 200 -7 7 -14 38 -16 68 -3 62 -33 218 -57 298 -9 30 -14 56
-12 58 2 3 10 -16 17 -41 21 -74 77 -209 89 -213 25 -8 20 31 -14 118 -34 90
-118 372 -128 435 -3 17 -19 86 -36 155 -17 69 -35 145 -40 170 -6 25 -25 108
-44 185 -63 256 -69 285 -62 316 6 26 4 30 -12 27 -15 -3 -18 -12 -16 -51 2
-27 9 -78 17 -115 25 -117 26 -129 12 -87 -7 22 -18 40 -24 40 -6 0 -25 20
-42 43 -33 46 -55 51 -26 7 23 -35 65 -147 72 -193 3 -20 17 -84 30 -142 23
-94 65 -322 63 -338 0 -4 -13 44 -29 106 -67 259 -153 488 -230 613 -17 28
-30 52 -28 54 2 1 40 -15 86 -37 46 -22 86 -38 89 -34 14 14 -37 52 -127 94
-78 37 -107 58 -163 116 -38 39 -88 101 -112 137 -66 102 -92 109 -30 9 34
-55 95 -166 95 -173 0 -3 -53 11 -117 31 -93 28 -133 46 -197 90 -99 67 -196
114 -307 145 -54 16 -96 36 -120 56 -47 39 -62 40 -26 3 l27 -29 -127 22
c-154 27 -203 40 -249 66 -41 23 -51 24 -35 5 10 -12 4 -15 -35 -18 -36 -3
-68 5 -152 39 -112 45 -140 52 -107 27z m393 -119 c-2 -3 -21 1 -41 7 -24 7
-33 14 -25 19 11 7 74 -18 66 -26z m99 -21 c-3 -3 -12 -4 -19 -1 -8 3 -5 6 6
6 11 1 17 -2 13 -5z m95 -14 c29 -6 78 -15 108 -21 47 -9 140 -52 140 -64 0
-2 -28 6 -62 17 -35 12 -110 34 -168 49 -106 28 -115 38 -18 19z m417 -119
c152 -78 109 -75 -56 4 -62 30 -113 56 -113 59 0 8 115 -36 169 -63z m-1249
-5 c0 -7 -113 -66 -117 -62 -6 6 92 66 110 66 4 0 7 -2 7 -4z m-1630 -81 c0
-5 -5 -3 -10 5 -5 8 -10 20 -10 25 0 6 5 3 10 -5 5 -8 10 -19 10 -25z m2805
25 c3 -6 -1 -7 -9 -4 -18 7 -21 14 -7 14 6 0 13 -4 16 -10z m560 -100 c22 -23
25 -30 12 -30 -9 0 -23 14 -32 30 -9 17 -14 30 -12 30 2 0 16 -13 32 -30z
m-2036 -24 c-29 -28 -345 -274 -347 -271 -3 2 12 34 32 70 20 36 36 71 36 78
0 7 23 35 51 62 27 28 47 42 43 33 -9 -25 24 -23 106 6 66 24 87 29 79 22z
m-360 -233 c-47 -94 -59 -107 -59 -67 0 20 15 47 47 87 25 31 47 57 49 57 1 0
-16 -35 -37 -77z m2765 -180 c23 -101 51 -231 75 -340 11 -49 23 -101 27 -118
4 -16 4 -28 1 -25 -11 10 -70 255 -117 485 -5 22 -12 48 -15 58 -4 9 -3 17 2
17 6 0 18 -35 27 -77z m-3379 -180 c21 -32 46 -67 56 -78 17 -19 157 -245 204
-330 12 -22 32 -57 45 -77 74 -125 -94 104 -196 267 -53 84 -158 275 -151 275
2 0 21 -26 42 -57z m502 -295 c-2 -18 -4 -6 -4 27 0 33 2 48 4 33 2 -15 2 -42
0 -60z m72 -58 c0 -8 -7 8 -15 35 -7 28 -13 57 -13 65 0 8 7 -7 15 -35 7 -27
13 -57 13 -65z m2918 8 c-3 -8 -6 -5 -6 6 -1 11 2 17 5 13 3 -3 4 -12 1 -19z
m-2901 -129 c6 -8 19 -75 28 -149 10 -74 24 -164 32 -199 10 -44 12 -67 5 -74
-13 -13 -10 -18 -60 82 l-42 84 -5 176 c-4 175 -4 176 13 135 10 -23 23 -48
29 -55z m2911 -61 c-3 -8 -6 -5 -6 6 -1 11 2 17 5 13 3 -3 4 -12 1 -19z
m-2782 -295 c5 -26 3 -33 -9 -33 -10 0 -16 9 -16 23 0 12 -2 40 -5 62 l-5 40
14 -30 c7 -16 17 -45 21 -62z m2865 -42 c18 -85 19 -105 8 -112 -27 -18 -33 0
-36 111 -1 63 -1 112 2 110 2 -3 14 -52 26 -109z m-2453 -27 c2 -7 -16 -14
-44 -18 -42 -5 -82 -16 -230 -61 -36 -12 -42 -11 -48 3 -5 13 7 30 25 33 3 0
64 13 135 28 140 30 156 32 162 15z m-754 -83 c-4 -18 -31 -36 -39 -28 -6 5
26 47 36 47 4 0 6 -9 3 -19z m397 -6 c0 -9 -9 -15 -22 -15 -22 1 -23 1 -4 15
25 19 26 19 26 0z m2849 -132 c-1 -97 -2 -102 -10 -53 -4 30 -12 75 -18 99
-11 49 -8 61 15 61 11 0 14 -20 13 -107z m-2934 -30 c15 -49 30 -95 33 -103 2
-8 -21 27 -52 79 -31 51 -56 95 -56 96 0 3 18 9 40 14 3 0 19 -38 35 -86z
m2845 -10 c0 -43 7 -123 16 -178 8 -55 17 -125 21 -155 l5 -55 -37 -18 c-20
-9 -40 -15 -45 -12 -5 3 -23 -3 -42 -14 -29 -16 -60 -25 -165 -47 -18 -3 -26
3 -42 33 -25 49 -99 133 -117 133 -19 0 -42 49 -28 58 6 4 42 28 81 55 39 26
129 99 199 162 71 63 135 114 142 115 8 0 12 -22 12 -77z m-315 -434 c28 -43
29 -49 15 -49 -9 0 -60 79 -60 94 0 14 21 -7 45 -45z m35 -69 c0 -5 -2 -10 -4
-10 -3 0 -8 5 -11 10 -3 6 -1 10 4 10 6 0 11 -4 11 -10z m-1932 -490 c14 -23
10 -25 -19 -9 -11 5 -17 14 -14 20 9 14 19 11 33 -11z"/>
<path d="M5700 9893 c0 -14 19 -38 25 -32 8 8 -5 39 -16 39 -5 0 -9 -3 -9 -7z"/>
<path d="M5035 9800 c-8 -13 4 -32 16 -25 12 8 12 35 0 35 -6 0 -13 -4 -16
-10z"/>
<path d="M5050 9429 c0 -5 5 -7 10 -4 6 3 10 8 10 11 0 2 -4 4 -10 4 -5 0 -10
-5 -10 -11z"/>
<path d="M6283 9153 c-22 -4 -33 -33 -13 -33 6 0 10 5 10 10 0 6 7 10 15 10 8
0 15 5 15 10 0 6 -1 9 -2 9 -2 -1 -13 -4 -25 -6z"/>
<path d="M5935 8710 c-3 -5 -2 -10 4 -10 5 0 13 5 16 10 3 6 2 10 -4 10 -5 0
-13 -4 -16 -10z"/>
<path d="M6747 8414 c-8 -8 1 -24 14 -24 5 0 9 7 9 15 0 15 -12 20 -23 9z"/>
<path d="M6735 8359 c-10 -15 1 -23 20 -15 9 3 13 10 10 16 -8 13 -22 13 -30
-1z"/>
<path d="M5200 8334 c0 -8 5 -12 10 -9 6 3 10 10 10 16 0 5 -4 9 -10 9 -5 0
-10 -7 -10 -16z"/>
<path d="M5740 8310 c0 -5 5 -10 10 -10 6 0 10 5 10 10 0 6 -4 10 -10 10 -5 0
-10 -4 -10 -10z"/>
<path d="M3856 8292 c-3 -6 -1 -14 5 -17 15 -10 25 3 12 16 -7 7 -13 7 -17 1z"/>
<path d="M4070 8270 c0 -19 3 -21 12 -12 9 9 9 15 0 24 -9 9 -12 7 -12 -12z"/>
<path d="M5980 7983 c0 -13 5 -23 10 -23 13 0 13 11 0 30 -8 12 -10 11 -10 -7z"/>
<path d="M6001 7914 c0 -11 3 -14 6 -6 3 7 2 16 -1 19 -3 4 -6 -2 -5 -13z"/>
<path d="M6280 7913 c0 -3 6 -14 13 -22 18 -20 123 -247 132 -283 4 -17 3 -28
-3 -28 -18 0 -70 -49 -188 -177 -148 -160 -167 -200 -27 -57 119 122 113 111
-22 -41 -49 -55 -92 -104 -96 -109 -9 -10 -99 65 -236 197 -56 54 -107 96
-113 92 -19 -12 22 -67 131 -175 113 -112 166 -176 155 -188 -14 -13 -115 50
-165 103 -45 47 -51 59 -51 97 -1 40 -1 42 -14 20 l-12 -23 -30 38 c-15 20
-29 49 -30 63 0 14 -7 25 -15 25 -8 0 -27 17 -43 37 -35 43 -44 43 -22 -1 9
-16 16 -33 16 -36 0 -12 -192 -96 -206 -91 -46 18 5 -69 80 -136 l31 -27 -40
-36 c-47 -41 -75 -59 -75 -47 0 5 11 19 25 32 25 24 32 40 16 40 -16 0 -82
-58 -122 -108 -22 -27 -80 -84 -130 -127 -84 -73 -107 -105 -76 -105 8 0 24
12 38 26 13 14 39 35 59 47 19 12 63 43 97 70 l62 48 -15 -48 c-8 -26 -20 -67
-26 -90 -9 -32 -15 -40 -24 -32 -9 7 -20 6 -37 -6 -22 -14 -24 -21 -20 -58 6
-50 51 -137 70 -137 7 0 13 4 13 9 0 13 53 8 57 -5 2 -6 -17 -25 -41 -43 l-45
-32 -103 91 c-57 49 -108 90 -114 90 -7 0 -14 10 -17 22 -13 46 -22 2 -23
-110 -1 -64 -8 -160 -17 -212 -8 -52 -19 -143 -22 -202 -4 -60 -8 -108 -10
-108 -24 0 -111 23 -115 31 -5 6 -15 7 -33 0 -15 -6 -34 -8 -42 -5 -29 12 -14
-13 18 -28 64 -30 146 -49 166 -38 11 5 33 10 50 10 17 0 31 5 31 10 0 6 -6
10 -14 10 -15 0 -14 44 8 275 8 83 16 187 17 233 2 45 6 82 10 82 4 0 16 -11
27 -24 10 -14 51 -50 90 -82 l71 -56 -34 -41 c-19 -22 -44 -60 -56 -84 -11
-24 -28 -47 -37 -52 -15 -9 -15 -13 -4 -31 9 -15 11 -38 6 -78 -4 -32 -8 -66
-9 -77 -1 -11 -3 -81 -5 -155 l-2 -135 -21 82 c-12 45 -27 87 -33 93 -13 13
-44 3 -44 -14 0 -7 -11 -18 -25 -24 -14 -6 -25 -17 -25 -23 0 -11 6 -10 66 7
25 7 29 -12 69 -277 13 -91 31 -187 40 -213 10 -30 14 -62 10 -83 -7 -38 4
-68 15 -38 5 14 10 8 21 -28 7 -26 19 -47 26 -47 16 0 17 57 2 97 -6 15 -22
80 -35 143 -28 129 -27 204 4 193 9 -3 22 -12 28 -20 8 -9 43 -16 99 -20 81
-6 87 -5 84 12 -4 20 -35 31 -113 40 -106 11 -110 14 -119 82 -4 33 -4 129 0
214 5 85 6 175 3 202 -3 26 -4 47 -1 47 3 0 35 -18 72 -41 54 -32 69 -47 74
-71 5 -19 3 -33 -5 -38 -8 -5 -7 -22 4 -67 9 -34 16 -78 16 -100 0 -53 16
-105 39 -123 23 -19 71 -162 71 -213 0 -21 -12 -92 -26 -157 -28 -124 -27
-167 2 -138 8 8 22 33 29 54 8 21 14 31 15 22 0 -28 18 -21 22 8 l3 27 28 -28
c15 -15 31 -42 35 -58 13 -51 34 -47 25 5 -10 56 -10 225 0 263 l8 29 34 -39
c19 -22 34 -45 35 -52 0 -7 18 -46 40 -88 l40 -77 -20 -106 c-11 -59 -23 -145
-26 -192 -8 -131 -8 -130 -48 -118 -19 6 -38 20 -44 32 -24 51 -202 124 -202
82 0 -9 19 -30 43 -47 54 -40 211 -119 235 -119 24 0 52 30 52 56 1 17 2 17
10 2 6 -9 13 -60 17 -115 6 -77 11 -98 23 -98 12 0 15 15 13 80 -1 44 -5 99
-9 122 l-7 42 44 19 c24 11 61 27 81 36 l37 15 113 -97 c62 -53 149 -124 193
-156 44 -33 84 -63 89 -67 5 -4 -13 -14 -40 -22 -82 -24 -172 -64 -258 -113
-88 -51 -98 -60 -92 -86 2 -9 -2 -19 -10 -22 -21 -8 -17 -28 5 -21 13 4 24 -3
36 -22 10 -16 24 -32 32 -36 7 -5 11 -12 8 -17 -9 -15 -96 -354 -126 -492 -7
-32 -15 -58 -19 -58 -4 0 -6 -10 -3 -22 2 -13 -3 -45 -10 -72 -11 -43 -18 -51
-47 -61 -43 -14 -46 -39 -5 -43 16 -2 35 -11 42 -20 11 -15 14 -15 23 -2 5 8
11 18 12 21 2 3 19 9 38 12 l35 6 -27 -15 c-30 -16 -36 -32 -15 -40 8 -3 79
19 158 49 79 30 181 67 227 82 65 21 82 31 82 46 0 24 -9 24 -93 0 -37 -11
-67 -18 -67 -16 0 9 73 44 81 40 5 -4 9 0 9 8 0 26 26 40 47 26 17 -10 31 -4
96 39 45 30 71 43 64 31 -6 -10 -15 -19 -19 -19 -16 0 -7 -25 17 -50 l26 -27
-58 -34 c-32 -19 -77 -40 -101 -47 -49 -15 -121 -52 -169 -89 -27 -19 -31 -28
-27 -51 5 -27 2 -30 -78 -65 -71 -31 -100 -38 -198 -47 -63 -5 -134 -10 -157
-10 -43 0 -43 0 -43 38 0 20 4 64 10 97 5 33 11 81 14 108 3 26 12 89 20 140
38 241 69 747 46 747 -5 0 -13 -15 -18 -32 -9 -32 -9 -32 -9 13 0 45 -7 69
-22 69 -4 0 -5 -55 -3 -121 5 -134 -6 -253 -45 -489 -17 -108 -23 -172 -19
-211 4 -31 2 -87 -3 -125 -6 -38 -13 -103 -16 -144 -4 -73 -12 -88 -49 -104
-7 -3 -4 -10 8 -20 20 -16 20 -17 -9 -221 -20 -144 -35 -294 -41 -420 -2 -60
-9 -173 -14 -250 -5 -77 -14 -264 -20 -415 -16 -398 -25 -521 -41 -531 -11 -7
-11 -11 -1 -17 10 -7 10 -35 1 -138 -6 -71 -13 -136 -16 -144 -3 -8 -7 -26 -9
-40 -5 -40 -18 -110 -68 -350 -26 -124 -49 -238 -51 -255 -3 -16 -9 -52 -14
-80 -22 -118 -22 -115 -3 -115 26 0 42 20 42 50 0 15 3 30 7 33 3 4 8 24 10
45 2 20 7 57 12 82 6 25 12 61 16 81 l5 37 63 5 c185 15 433 61 526 98 109 43
114 44 36 4 -173 -87 -210 -98 -342 -103 -68 -2 -123 -8 -123 -13 0 -5 7 -9
15 -9 8 0 15 -4 15 -9 0 -5 6 -9 13 -8 6 0 28 -1 47 -2 l35 -2 -43 -15 c-24
-8 -53 -16 -65 -18 -12 -1 -35 -8 -51 -15 -16 -6 -47 -13 -69 -15 -39 -4 -66
-20 -54 -33 9 -9 151 22 240 52 54 19 73 21 79 12 5 -9 8 -7 8 4 0 17 35 30
135 49 80 16 188 54 254 91 39 23 56 27 61 19 6 -9 10 -6 14 8 8 24 88 84 143
107 21 9 109 43 196 76 87 33 177 69 199 80 86 44 40 7 -134 -108 -250 -165
-306 -200 -433 -270 -180 -99 -275 -144 -275 -131 0 8 -5 6 -11 -4 -5 -10 -76
-50 -157 -90 l-146 -72 36 -9 c33 -8 51 -1 234 91 176 88 402 214 534 297 56
35 419 287 479 332 43 32 68 43 56 23 -9 -14 6 -61 18 -57 7 2 11 36 12 85 0
50 5 86 13 94 18 18 15 33 -4 17 -15 -12 -16 -4 -10 105 4 66 10 124 14 130 3
6 25 36 48 66 41 55 69 119 62 142 -3 7 -15 -7 -28 -30 -21 -38 -25 -40 -36
-24 -10 14 -10 29 -2 63 6 26 7 90 3 159 -11 194 -11 201 8 211 14 8 15 13 4
29 -10 17 -8 27 13 65 14 26 35 56 48 67 l22 22 -6 -35 c-3 -19 -13 -65 -20
-104 -8 -38 -17 -115 -20 -170 -4 -55 -11 -106 -17 -113 -8 -10 -7 -16 2 -21
7 -5 12 -17 11 -27 -5 -42 0 -68 10 -58 6 6 19 89 30 185 11 96 24 197 29 224
5 28 12 71 16 97 5 35 13 53 36 72 34 29 37 40 8 31 -19 -6 -21 -4 -15 16 4
13 10 41 13 61 7 45 91 132 117 122 9 -3 16 -1 16 5 0 6 0 14 0 19 1 10 72 82
83 82 4 0 6 -8 2 -19 -5 -15 -1 -18 20 -13 29 5 31 14 10 32 -21 18 -20 20 30
79 47 55 55 78 30 87 -20 8 -69 -30 -184 -140 -52 -50 -91 -82 -87 -71 9 23
43 152 55 205 5 19 18 71 31 115 12 44 29 107 37 140 9 33 21 67 28 75 25 30
79 147 115 251 26 74 41 104 51 101 12 -3 12 -2 0 6 -15 11 -12 24 39 217 l30
110 -6 -150 c-6 -170 -5 -285 3 -298 3 -4 12 1 20 13 11 16 12 24 4 29 -6 4
-9 22 -7 42 3 19 5 61 6 94 l2 60 12 -55 c17 -81 30 -45 16 42 -9 53 -10 73
-1 76 15 5 14 53 -1 49 -10 -1 -13 38 -13 173 0 203 13 360 29 360 7 0 6 3 -1
8 -9 6 -15 56 -20 160 -3 84 -10 152 -15 152 -4 0 -8 -96 -9 -212 -1 -117 -5
-224 -10 -238 -6 -19 -8 -12 -5 28 2 28 0 52 -4 52 -4 0 -10 26 -13 58 -4 32
-9 66 -13 75 -9 26 -27 20 -20 -5 4 -13 12 -58 18 -100 14 -93 13 -99 -87
-398 -81 -240 -132 -377 -145 -385 -9 -6 32 154 45 175 5 8 1 11 -11 8 -21 -3
-39 -51 -75 -191 -24 -94 -40 -123 -127 -229 -34 -43 -58 -78 -53 -78 11 0 80
71 117 122 l25 33 -6 -40 c-7 -39 -59 -157 -106 -240 -56 -99 -105 -183 -126
-214 l-23 -34 0 62 c0 52 3 61 16 59 23 -4 28 16 10 34 -8 8 -17 41 -19 72 -3
32 -10 63 -16 69 -13 13 -12 15 -12 -123 l0 -95 -24 115 c-28 131 -59 226 -86
261 -25 33 -32 19 -13 -27 9 -21 32 -113 51 -204 46 -219 44 -210 54 -210 17
0 9 -57 -12 -84 -11 -14 -24 -26 -27 -26 -4 0 -18 30 -31 67 -14 38 -37 94
-53 125 -15 31 -28 59 -28 61 0 2 -25 49 -55 105 -47 87 -53 105 -45 127 6 15
15 23 21 19 6 -3 38 20 73 53 33 32 73 69 88 82 l27 23 36 -118 c51 -165 58
-184 72 -196 10 -8 13 -5 13 13 0 28 -61 222 -88 276 l-18 38 39 53 c22 28 43
52 47 52 9 0 61 108 98 205 36 95 82 349 82 453 0 95 -15 85 -24 -15 -4 -43
-10 -94 -14 -113 -7 -33 -9 -32 -56 75 -27 61 -63 138 -81 173 l-33 63 35 65
c33 63 40 91 17 76 -8 -6 -54 -75 -99 -151 -33 -55 -72 -101 -87 -101 -10 0
-15 -5 -12 -13 2 -7 -14 -30 -36 -52 -22 -21 -40 -36 -40 -32 0 4 -9 3 -21 -3
-19 -11 -20 -10 -9 9 12 24 26 27 34 9 4 -7 4 -2 2 11 -3 16 7 40 37 79 47 65
127 192 127 204 0 4 -7 8 -15 8 -8 0 -15 -4 -15 -9 0 -10 -103 -166 -122 -186
-10 -10 -4 6 52 135 17 41 38 89 45 105 10 25 23 33 78 49 97 27 109 38 101
92 -6 39 -4 44 14 44 30 0 39 18 56 119 16 90 28 131 91 295 27 72 27 100 0
90 -11 -5 -15 1 -15 21 0 27 1 28 19 11 21 -19 41 -14 41 8 0 8 -14 28 -32 45
l-32 31 22 20 c21 20 21 22 6 51 -11 22 -33 38 -72 56 -140 61 -245 117 -345
184 l-107 72 21 23 c28 30 16 51 -17 30 -30 -20 -45 -20 -89 1 -21 10 -35 23
-33 32 3 21 -11 61 -22 61 -4 0 -4 17 1 38 5 20 9 57 9 82 0 25 6 54 13 66 45
76 189 284 197 284 6 0 10 9 10 19 0 10 7 22 16 25 13 5 15 16 10 54 -3 26
-11 121 -17 212 -6 92 -17 177 -24 192 -8 17 -10 30 -4 34 5 3 7 14 4 24 -7
22 10 35 45 32 21 -2 46 18 126 99 54 55 122 116 151 135 64 43 80 61 66 75
-8 8 -20 6 -41 -5 -21 -11 -32 -12 -34 -4 -7 19 -80 -36 -152 -113 -69 -75
-174 -161 -189 -156 -16 5 -36 52 -71 168 -33 109 -38 117 -61 117 -14 0 -28
-5 -31 -10 -3 -5 -11 -4 -19 2 -20 17 -82 -21 -69 -42 3 -5 -17 -43 -44 -86
-27 -42 -73 -125 -102 -184 -29 -60 -57 -108 -61 -108 -10 0 0 -61 13 -75 5
-6 16 -5 29 3 26 16 186 53 261 59 63 6 88 22 64 43 -12 9 -31 9 -85 1 -97
-15 -181 -14 -181 2 1 6 9 26 18 42 32 57 157 244 163 245 4 0 26 -39 49 -87
23 -49 53 -103 67 -121 22 -29 24 -37 14 -58 -15 -34 -14 -42 3 -19 13 19 15
18 20 -15 27 -153 35 -320 16 -320 -6 0 -10 -16 -8 -37 l3 -37 -70 -17 c-38
-10 -107 -18 -152 -18 -64 -1 -83 -4 -83 -15 0 -8 8 -17 18 -21 12 -6 3 -11
-33 -18 -27 -5 -60 -9 -72 -9 -13 0 -23 -4 -23 -9 0 -5 -9 -9 -19 -9 -26 0
-36 -17 -21 -35 22 -26 -7 -18 -61 17 -27 18 -49 39 -49 46 0 8 -5 12 -12 10
-6 -2 -35 10 -64 26 -29 17 -92 53 -139 81 -83 47 -101 64 -197 188 -9 12 -19
19 -23 15 -4 -4 6 -24 22 -45 49 -63 48 -68 -6 -24 -52 40 -92 53 -90 29 2
-33 40 -75 93 -104 71 -38 96 -56 96 -67 0 -5 -7 -7 -15 -3 -8 3 -14 2 -12 -2
3 -10 -34 -92 -42 -92 -3 0 -24 33 -45 73 -21 39 -47 81 -56 92 -10 11 -20 43
-24 72 -6 45 -4 55 15 74 19 19 59 133 59 167 0 7 -11 17 -24 22 -13 5 -27 14
-31 19 -3 6 -15 11 -25 11 -10 0 -20 5 -22 12 -5 13 -128 -104 -128 -121 0
-17 19 -13 53 12 33 23 62 41 86 53 19 10 45 -8 49 -33 2 -11 -13 -50 -32 -88
-30 -56 -35 -76 -32 -116 3 -52 36 -142 72 -200 13 -20 30 -53 38 -73 10 -24
21 -36 35 -36 24 0 111 -99 111 -126 0 -10 -23 -43 -50 -72 l-50 -53 -24 18
c-14 10 -30 31 -36 48 -6 16 -20 40 -33 54 -19 22 -14 20 46 -12 68 -37 97
-45 97 -27 0 5 -40 41 -89 80 -92 73 -231 213 -231 234 0 7 4 16 9 21 17 17
91 157 91 172 0 10 -6 12 -20 8 -11 -4 -36 -1 -56 5 l-35 12 26 33 c14 19 25
38 25 44 0 22 -18 10 -45 -28 -15 -22 -37 -41 -48 -43 -13 -2 -21 -9 -20 -19
4 -20 -62 -83 -77 -74 -6 4 -9 13 -6 20 2 7 -11 31 -30 53 -36 43 -42 57 -20
49 14 -5 25 55 32 178 2 41 8 54 32 75 16 14 56 47 87 74 l57 49 -66 62 -66
61 38 19 c36 17 102 36 102 29 0 -2 -11 -20 -25 -40 -30 -44 -32 -64 -6 -64
13 0 37 23 67 65 l46 65 39 -54 c21 -30 39 -62 39 -72 0 -9 3 -14 7 -11 3 4
40 -26 82 -66 86 -82 151 -118 176 -97 8 7 15 18 15 25 0 8 6 15 13 17 25 6
397 437 397 459 0 6 -6 12 -14 15 -16 6 -27 27 -31 61 -2 17 9 10 52 -33 54
-54 85 -65 91 -33 4 20 -66 105 -183 226 -83 86 -105 104 -105 86z m455 -698
c4 -11 -5 -3 -20 18 -25 36 -26 41 -13 70 l13 32 6 -50 c4 -27 10 -59 14 -70z
m425 91 c0 -3 -15 -14 -32 -26 l-33 -22 30 26 c31 27 35 29 35 22z m-170 -189
c0 -2 -10 -12 -22 -23 l-23 -19 19 23 c18 21 26 27 26 19z m-1566 -40 c-2 -7
-14 -19 -27 -26 -21 -13 -21 -12 2 13 27 29 33 32 25 13z m217 -380 c-16 -24
-55 -75 -87 -113 -58 -72 -104 -150 -104 -181 -1 -21 -50 -85 -50 -64 0 11 -3
11 -15 1 -11 -9 -15 -9 -15 -1 0 7 -6 11 -13 9 -17 -4 -117 43 -117 54 0 21
21 47 34 42 8 -3 28 14 49 44 20 26 59 70 87 96 41 39 54 45 65 36 12 -10 16
-9 22 6 3 11 29 40 57 66 39 36 59 47 84 48 l33 0 -30 -43z m383 -169 c22 -17
56 -45 73 -62 18 -16 36 -26 40 -22 5 4 -12 25 -37 47 -37 33 -40 38 -18 29
15 -5 57 -28 93 -50 73 -47 73 -47 30 -145 -12 -28 -25 -68 -29 -90 -6 -36 -2
-32 37 40 51 91 63 125 48 125 -6 0 -11 4 -11 10 0 5 22 -4 49 -20 37 -23 55
-29 80 -24 l31 7 0 -97 0 -96 -94 0 c-51 0 -107 -3 -123 -6 -26 -5 -38 1 -92
51 -49 46 -61 63 -59 84 3 22 -1 26 -20 23 -13 -1 -22 1 -20 5 2 5 18 36 36
71 18 34 28 62 24 62 -5 0 -19 -23 -32 -51 -14 -28 -26 -46 -28 -41 -2 6 4 25
13 42 9 18 15 33 13 35 -2 2 -14 -16 -28 -41 l-23 -45 -39 38 -38 39 31 57
c17 31 35 57 41 57 5 0 29 -14 52 -32z m-423 -24 c12 -15 11 -16 -9 -10 -27 9
-30 -11 -5 -30 16 -11 16 -13 -10 -25 -15 -7 -27 -16 -27 -21 0 -21 31 -78 74
-136 28 -38 39 -59 28 -53 -22 12 -152 154 -152 166 0 12 74 125 81 125 4 0
13 -7 20 -16z m1237 -36 c-6 -16 -36 -34 -44 -26 -3 4 -4 14 -1 23 7 17 51 21
45 3z m-68 -44 c0 -25 -13 -54 -47 -104 -27 -38 -51 -69 -55 -70 -11 0 -17 31
-20 109 l-3 74 55 17 c30 9 58 15 63 13 4 -2 7 -20 7 -39z m-145 -88 c3 -46
13 -96 21 -111 17 -33 19 -54 3 -38 -8 8 -18 7 -37 -3 -31 -16 -82 -19 -82 -4
0 6 -25 10 -56 10 -50 0 -55 2 -48 18 4 9 10 53 13 97 l6 80 70 17 c109 26
102 30 110 -66z m-1140 5 c3 -10 16 -30 28 -43 12 -13 53 -66 91 -118 38 -52
85 -112 104 -132 l35 -37 -44 -53 c-92 -109 -112 -139 -101 -150 7 -7 41 19
108 83 55 52 102 101 105 109 12 28 68 73 94 76 24 3 24 2 10 -26 -8 -15 -20
-34 -27 -42 -32 -35 -138 -243 -138 -270 0 -25 -6 -23 -60 22 -29 24 -51 36
-55 30 -3 -6 -10 -8 -15 -5 -12 7 -17 -3 -25 -52 -4 -27 -3 -43 3 -43 6 0 13
8 15 18 4 14 5 14 6 -3 0 -11 -4 -38 -10 -60 l-12 -40 -19 70 c-11 39 -38 107
-59 152 -67 142 -88 208 -99 315 -7 71 -7 104 0 108 6 4 8 13 5 22 -6 15 33
87 47 88 4 0 9 -8 13 -19z m501 -148 c-11 -122 -19 -160 -33 -160 -9 0 -11 6
-7 16 4 9 8 30 8 46 1 17 7 40 14 53 15 26 6 29 -20 5 -16 -14 -14 -7 7 35 14
29 28 52 31 52 3 0 3 -21 0 -47z m207 -46 c43 3 48 2 28 -7 -16 -7 -21 -14
-14 -21 6 -6 60 -4 159 7 82 8 171 18 198 21 47 5 48 4 40 -18 -4 -13 -10 -59
-13 -103 l-6 -78 -60 -19 c-33 -10 -70 -19 -83 -19 -13 0 -32 -5 -43 -11 -17
-8 -26 -6 -52 15 -18 14 -73 55 -123 91 -51 36 -111 84 -135 106 -23 21 -45
36 -48 33 -3 -3 21 -30 53 -60 33 -30 55 -54 50 -54 -4 0 -30 21 -56 47 -55
54 -65 39 -16 -21 21 -25 28 -41 20 -44 -20 -6 -14 -27 26 -77 104 -135 192
-205 255 -205 39 0 44 33 11 78 -23 31 -19 29 26 -15 l53 -51 -28 -65 c-15
-36 -24 -71 -20 -77 14 -23 -142 89 -301 215 -87 70 -168 133 -178 141 -19 13
-19 14 -1 34 l19 21 13 -26 c28 -52 46 -23 58 90 4 39 8 79 10 90 2 11 4 32 4
46 1 24 2 24 51 -21 49 -45 53 -47 103 -43z m-483 28 c49 -41 58 -42 94 -14
l26 20 10 -26 c9 -24 6 -32 -22 -65 -18 -21 -35 -38 -38 -39 -6 0 -80 92 -105
132 -23 36 -15 34 35 -8z m254 -266 c28 -22 61 -54 74 -70 32 -40 176 -159
312 -259 154 -111 242 -181 236 -187 -2 -2 -38 16 -80 41 -87 53 -106 62 -106
48 0 -5 46 -37 103 -70 56 -34 135 -83 176 -109 40 -26 78 -51 85 -54 6 -3 41
-21 78 -40 37 -18 66 -35 64 -36 -2 -2 -56 19 -120 47 -65 27 -120 50 -122 50
-2 0 -4 -6 -4 -13 0 -12 131 -84 167 -92 31 -6 106 -35 158 -60 28 -13 61 -26
75 -29 54 -11 61 -25 45 -91 -19 -77 -19 -124 -1 -131 10 -4 12 -13 7 -32 l-8
-27 -224 4 -224 4 -246 154 c-227 143 -254 163 -350 260 l-104 106 59 -32 c33
-17 61 -29 63 -27 13 12 -140 111 -157 101 -21 -13 -9 -45 38 -96 44 -50 45
-52 12 -29 -77 54 -116 87 -114 96 1 5 12 42 24 81 12 40 19 77 15 83 -9 14
-35 13 -35 -2 -1 -22 -50 -114 -50 -94 0 11 7 27 15 36 13 14 10 25 -30 95
-36 63 -42 81 -31 87 7 4 17 29 20 55 7 44 109 273 122 273 3 0 29 -18 58 -41z
m556 -73 c-21 -35 -22 -35 -46 -18 -13 9 -24 19 -24 22 0 6 83 39 88 35 2 -1
-7 -19 -18 -39z m121 -7 c24 -13 15 -28 -37 -58 -40 -24 -41 -21 -12 30 24 44
22 43 49 28z m173 -115 c33 -22 53 -44 60 -66 12 -37 55 -69 124 -94 74 -26
185 -79 211 -101 l24 -19 -30 -95 c-46 -142 -73 -233 -73 -247 0 -7 -2 -12 -4
-12 -15 0 -108 49 -168 89 -40 26 -111 69 -157 95 -47 27 -125 84 -174 128
-49 43 -109 93 -133 110 -40 28 -59 68 -34 68 5 0 18 17 29 38 35 68 39 68
121 2 79 -65 102 -76 71 -32 -18 26 -18 29 -3 39 15 9 12 15 -26 54 -24 24
-40 45 -35 46 4 2 28 16 53 33 50 33 35 37 144 -36z m-1075 -31 c0 -25 -1 -26
-9 -8 -12 27 -12 35 0 35 6 0 10 -12 9 -27z m-154 -123 c7 0 16 8 18 18 3 9 5
1 6 -18 1 -19 4 -46 8 -60 6 -24 5 -24 -27 8 -19 17 -36 32 -39 32 -3 0 -7 24
-8 53 l-1 52 15 -42 c8 -24 21 -43 28 -43z m312 -308 c3 -9 21 -31 41 -48 l35
-31 -49 -18 c-27 -10 -56 -24 -64 -30 -25 -20 -48 -24 -53 -10 -5 11 14 90 38
163 6 17 44 -2 52 -26z m504 -372 c34 -22 56 -40 48 -40 -14 1 -130 80 -117
80 4 0 35 -18 69 -40z m233 -135 c31 -20 56 -42 56 -50 0 -7 -12 -28 -27 -47
-15 -18 -29 -35 -31 -38 -2 -3 -17 10 -34 28 -38 44 -49 33 -14 -13 16 -20 24
-40 20 -48 -21 -34 -131 -149 -153 -160 -14 -7 -27 -21 -29 -31 -2 -11 -17
-33 -33 -50 l-29 -31 -26 33 c-14 17 -32 32 -40 32 -18 0 -18 -19 0 -26 8 -3
22 -17 31 -31 16 -24 16 -26 -7 -50 -12 -14 -44 -43 -70 -65 l-47 -39 -36 27
c-44 34 -61 22 -20 -14 l31 -27 -61 -58 c-33 -31 -66 -55 -73 -52 -28 11 -30
50 -7 155 13 58 33 150 44 205 13 59 27 103 36 108 16 9 21 67 6 67 -6 0 -17
-10 -25 -22 -9 -13 -19 -18 -24 -13 -4 6 -18 22 -30 37 l-24 26 89 47 c48 26
108 60 133 75 25 15 83 40 130 55 93 30 113 42 103 58 -7 12 76 -33 161 -88z
m201 -15 l60 -1 -66 -23 c-36 -13 -72 -26 -79 -31 -10 -6 -10 -4 -2 11 8 14 7
23 -4 35 -12 14 -12 15 8 13 13 -1 50 -3 83 -4z m85 -84 c0 -3 -15 -38 -34
-79 -19 -42 -37 -90 -41 -109 -3 -18 -9 -41 -11 -51 -4 -11 -24 19 -61 90 -30
60 -59 113 -65 120 -6 7 -5 14 2 18 5 3 10 -1 10 -10 0 -26 21 -26 105 -1 88
26 95 28 95 22z m-165 -163 c32 -65 58 -125 56 -133 -7 -39 -23 -27 -60 46
-52 100 -78 145 -90 157 -7 7 -6 16 6 29 9 10 19 18 22 18 4 0 33 -53 66 -117z
m-39 -69 l59 -116 -60 -55 -60 -54 -23 28 c-13 15 -50 63 -83 106 l-60 77 73
73 c42 41 78 69 84 65 6 -4 37 -60 70 -124z m451 -160 c73 -163 84 -222 46
-253 -10 -9 -45 -55 -78 -104 -57 -84 -60 -87 -91 -81 -21 4 -34 1 -40 -7 -4
-7 -3 -14 2 -16 36 -13 38 -21 13 -57 -13 -20 -27 -36 -30 -36 -3 0 -12 19
-19 43 -19 58 -113 295 -134 335 -16 30 -36 43 -36 23 0 -5 15 -42 34 -83 42
-92 112 -282 121 -328 5 -31 2 -42 -29 -80 -20 -25 -36 -51 -36 -57 0 -7 -7
-13 -15 -13 -12 0 -13 4 -5 19 14 28 12 44 -5 37 -15 -5 -19 5 -45 124 -7 30
-35 119 -62 198 -27 78 -46 147 -43 152 12 19 100 75 113 72 8 -2 20 4 27 14
11 16 15 13 40 -30 15 -26 44 -95 65 -154 21 -58 43 -108 50 -110 13 -5 13 -4
-27 122 -25 82 -52 142 -84 187 l-18 26 49 48 48 47 35 -73 c20 -41 49 -115
65 -165 33 -102 48 -134 62 -134 43 0 -42 259 -121 372 -19 26 -19 27 2 62 11
19 18 40 14 45 -3 6 2 22 11 36 l17 26 19 -29 c10 -16 49 -97 85 -178z m-618
36 c39 -50 74 -97 77 -104 3 -9 -12 -26 -40 -45 l-45 -31 -35 21 c-20 11 -58
51 -86 87 l-49 67 46 47 c26 27 50 48 53 48 4 0 39 -41 79 -90z m1117 -169
c-8 -36 -20 -90 -26 -118 -7 -29 -16 -53 -20 -53 -4 0 -8 -15 -8 -32 0 -38
-40 -188 -53 -202 -5 -6 -9 -19 -9 -30 0 -23 -50 -179 -55 -174 -2 2 5 37 16
78 18 71 19 107 1 96 -5 -3 -17 -39 -27 -80 -11 -42 -23 -76 -27 -76 -4 0 -8
-14 -8 -32 0 -17 -8 -56 -17 -85 -14 -43 -21 -53 -35 -50 -26 7 -32 -10 -14
-38 14 -22 13 -32 -16 -137 -18 -62 -35 -115 -38 -118 -3 -3 -5 -9 -5 -15 -1
-19 -27 -130 -34 -143 -4 -7 -7 5 -8 25 0 21 -2 49 -3 63 -3 23 62 300 94 400
8 25 40 110 71 190 51 132 65 165 117 263 17 33 15 52 -3 27 -9 -12 -10 -12
-5 3 3 10 6 23 6 28 0 5 5 9 11 9 5 0 7 -5 3 -12 -4 -7 -3 -8 4 -4 7 4 9 18 6
31 -4 15 12 85 42 186 47 154 49 160 52 114 2 -27 -4 -78 -12 -114z m-1208 20
c28 -30 51 -55 50 -56 -29 -19 -99 -74 -158 -124 -41 -35 -80 -65 -86 -68 -16
-6 -186 117 -181 130 2 6 29 33 59 60 l57 49 33 -25 c43 -32 136 -87 148 -87
22 0 8 28 -18 39 -15 6 -53 29 -84 49 l-57 38 67 58 67 57 25 -32 c14 -19 49
-58 78 -88z m307 73 c-47 -41 -79 -61 -74 -46 6 15 103 91 109 85 3 -3 -13
-20 -35 -39z m65 13 c0 -2 -15 -16 -32 -33 l-33 -29 29 33 c28 30 36 37 36 29z
m-70 -61 c0 -2 -8 -10 -17 -17 -16 -13 -17 -12 -4 4 13 16 21 21 21 13z m-90
-20 c0 -2 -19 -19 -42 -36 l-43 -32 40 36 c40 36 45 39 45 32z m15 -150 c-26
-39 -63 -60 -81 -45 -20 16 -16 22 36 63 36 28 46 32 53 21 5 -9 1 -24 -8 -39z
m-550 -54 c44 -31 84 -60 89 -64 6 -4 8 -10 4 -13 -8 -9 -155 -41 -226 -50
-52 -7 -54 -6 -43 14 6 11 10 24 9 28 -1 4 6 47 17 95 l19 87 26 -20 c14 -10
61 -45 105 -77z m606 -40 c24 -67 90 -325 85 -330 -2 -2 -13 28 -24 65 -18 57
-83 169 -155 267 -6 7 4 25 24 48 38 42 38 42 70 -50z m465 27 c-21 -67 -56
-139 -67 -139 -6 0 -8 -4 -4 -9 3 -5 0 -15 -7 -23 -7 -7 -20 -26 -28 -42 -23
-44 -86 -111 -93 -99 -4 5 10 33 31 62 60 82 108 161 143 233 18 37 34 66 36
64 2 -1 -3 -23 -11 -47z m-534 -105 c55 -79 89 -146 111 -221 l16 -52 -67 -44
c-37 -25 -107 -66 -156 -93 -69 -37 -91 -45 -94 -33 -10 29 -83 161 -117 211
-19 29 -35 56 -35 60 0 4 21 21 48 39 26 18 62 46 80 62 l32 31 63 -66 c92
-98 196 -192 203 -185 4 3 -50 62 -120 130 -82 80 -126 131 -126 144 0 21 85
94 104 89 5 -1 31 -33 58 -72z m-287 -80 c-24 -18 -83 -50 -73 -39 10 10 81
54 88 54 3 0 -4 -7 -15 -15z m-32 -196 c30 -51 67 -117 81 -146 l26 -52 -22
-9 c-13 -5 -31 -12 -42 -15 -12 -4 -17 -13 -13 -26 3 -11 1 -20 -4 -20 -5 0
-9 4 -9 9 0 16 -121 140 -173 177 -29 21 -63 47 -75 58 l-24 21 99 47 c54 26
99 47 100 47 0 1 26 -41 56 -91z m-207 -82 c134 -113 202 -184 183 -191 -8 -3
-61 -11 -118 -18 l-103 -13 -67 75 c-121 136 -193 202 -207 189 -8 -8 7 -38
20 -38 13 0 99 -87 170 -172 54 -65 57 -61 -57 -73 -56 -5 -60 -4 -100 30 -22
19 -44 35 -48 35 -5 0 -6 7 -3 15 4 9 1 15 -7 15 -8 0 -24 3 -36 6 -38 10 -26
-14 23 -49 87 -60 87 -59 6 -54 -40 2 -75 1 -77 -3 -11 -17 25 -30 103 -36
119 -10 122 -25 12 -58 -57 -18 -90 -33 -90 -42 0 -8 3 -14 8 -14 10 0 186 46
273 70 83 24 127 35 182 44 20 4 37 13 37 20 0 8 42 19 123 33 119 20 122 20
139 2 22 -25 30 -24 26 3 -2 16 3 23 22 28 14 3 26 14 28 24 3 16 -1 18 -27
14 -17 -2 -31 -3 -31 -2 0 2 26 16 58 31 88 41 233 131 269 165 18 18 35 29
38 26 3 -3 -20 -27 -52 -54 -151 -127 -193 -169 -193 -191 0 -27 -33 -53 -170
-128 -178 -98 -190 -106 -190 -115 0 -12 -73 -50 -95 -50 -27 0 -16 18 15 25
37 8 49 25 18 25 -13 0 -68 -7 -122 -15 -80 -12 -101 -13 -108 -3 -6 10 -8 10
-8 1 0 -18 -65 -33 -145 -33 -38 -1 -89 -5 -112 -9 l-42 -8 4 46 c19 212 40
367 52 374 9 5 13 30 13 77 l0 69 108 4 c59 1 123 4 143 5 31 2 47 -8 135 -82z
m704 65 c0 -8 -115 -81 -128 -81 -4 0 16 15 43 32 28 18 54 38 58 45 9 15 27
17 27 4z m-150 -96 c0 -2 -10 -9 -22 -15 -22 -11 -22 -10 -4 4 21 17 26 19 26
11z m-55 -33 c-22 -19 -88 -55 -81 -44 4 7 24 21 44 32 41 21 51 24 37 12z
m-180 -102 c-3 -5 -14 -10 -23 -10 -15 0 -15 2 -2 10 20 13 33 13 25 0z m353
-87 c23 -49 42 -95 42 -104 0 -9 6 -19 13 -22 13 -5 88 -181 102 -238 5 -22
-3 -34 -64 -92 -61 -58 -126 -101 -254 -169 -55 -29 -54 -20 0 19 29 20 51 38
49 40 -5 5 -70 -32 -121 -68 -93 -66 -496 -136 -607 -104 -56 16 -76 27 -71
41 3 8 0 14 -6 14 -7 0 -14 -7 -18 -17 -16 -43 102 -93 219 -93 102 0 137 -25
79 -55 -27 -13 -37 -13 -103 0 -40 9 -109 19 -153 22 -44 4 -72 9 -62 11 37 8
14 22 -35 21 -68 -1 -133 -20 -133 -39 0 -12 24 -16 128 -20 99 -4 130 -8 137
-20 8 -12 10 -12 10 -1 0 11 12 12 56 7 75 -9 84 -16 43 -33 -41 -18 -159 -12
-292 15 -48 10 -90 15 -93 10 -10 -16 125 -54 228 -65 34 -3 57 -8 50 -11 -6
-2 -12 -8 -12 -14 0 -6 7 -7 18 -2 9 4 73 11 142 15 158 9 179 17 620 219 144
66 156 73 146 88 -4 6 -25 3 -56 -9 -79 -30 -373 -119 -378 -115 -8 8 34 24
133 51 127 33 256 78 368 126 71 30 87 35 83 21 -3 -9 -8 -34 -12 -55 -7 -42
-27 -60 -164 -149 -137 -89 -393 -245 -422 -259 -29 -13 -37 -29 -15 -29 32 0
241 120 457 262 41 27 79 50 85 51 5 1 16 9 23 17 11 13 11 11 2 -7 -6 -13
-36 -42 -68 -65 -87 -66 -304 -198 -313 -192 -5 3 -9 0 -9 -5 0 -11 -275 -151
-295 -151 -5 1 3 12 20 25 39 32 27 41 -18 15 -50 -30 -61 -69 -19 -70 27 -1
-219 -120 -261 -127 -46 -7 -59 -23 -19 -23 39 0 87 18 239 88 70 33 151 70
178 82 28 12 84 38 125 57 41 19 91 42 110 50 19 9 83 40 143 70 59 30 112 51
117 48 6 -4 9 -2 8 4 -2 6 21 24 50 41 28 17 52 28 52 24 0 -26 -205 -242
-218 -229 -5 5 -96 -40 -134 -66 -14 -11 -36 -19 -47 -19 -12 0 -21 -6 -21
-12 0 -7 -49 -47 -108 -88 -59 -41 -178 -130 -265 -198 -188 -147 -282 -211
-320 -219 -38 -8 -44 -23 -10 -24 19 0 1 -10 -56 -30 -47 -16 -86 -28 -87 -26
-2 1 6 59 17 127 21 135 42 367 35 387 -3 7 2 16 10 21 13 7 12 14 -5 52 -13
29 -22 39 -25 30 -3 -8 -7 -87 -10 -175 -2 -88 -9 -186 -15 -217 -24 -130 -31
-173 -31 -199 0 -29 -15 -39 -58 -39 -39 0 -14 -17 36 -23 24 -3 42 -1 42 5 0
5 8 8 18 6 9 -1 22 0 27 3 6 4 42 17 80 29 96 31 185 78 281 147 222 158 317
223 407 277 54 33 100 63 103 68 9 15 -17 8 -74 -19 -90 -43 -144 -78 -342
-219 -102 -72 -198 -139 -215 -148 -30 -17 -30 -17 -5 1 40 29 248 187 340
259 47 36 122 91 168 121 77 52 88 56 150 59 93 4 103 7 133 34 14 14 39 36
55 50 16 14 58 57 93 95 62 68 63 69 57 36 -17 -95 -26 -215 -16 -225 16 -16
31 6 37 53 3 22 10 41 15 41 12 0 0 -123 -12 -128 -4 -2 -6 -12 -3 -23 7 -25
-17 -139 -28 -139 -5 0 -9 -11 -9 -24 0 -18 -20 -40 -82 -90 -77 -61 -111 -79
-76 -39 25 28 98 182 114 238 15 55 19 155 5 155 -4 0 -11 -30 -14 -67 -6 -55
-18 -90 -66 -188 -74 -149 -120 -209 -196 -258 -433 -278 -760 -461 -776 -435
-7 10 -9 10 -9 -3 0 -9 -14 -20 -32 -27 -18 -6 -66 -22 -106 -37 -50 -18 -83
-24 -103 -20 -18 4 -29 3 -29 -4 0 -7 -26 -11 -68 -11 l-69 0 38 177 c21 98
49 219 62 268 25 92 32 140 42 305 7 119 33 333 45 381 16 59 13 82 -9 76 -17
-4 -18 2 -15 117 12 438 15 528 21 589 l6 67 48 0 c37 0 49 -4 49 -15 0 -11
11 -15 39 -15 46 0 73 9 65 21 -3 5 59 9 145 9 l151 0 60 -76 c33 -42 71 -94
83 -115 12 -21 25 -39 30 -39 22 0 -9 63 -69 137 -19 23 -32 47 -31 55 2 7 2
9 -1 5 -4 -8 -42 21 -42 32 0 4 11 8 26 9 14 1 34 6 44 12 10 5 25 10 33 10
18 0 87 -103 141 -207 21 -40 42 -73 47 -73 30 0 -17 105 -110 244 -21 33 -37
66 -34 73 3 8 26 25 52 40 25 14 64 36 87 49 l41 23 51 -67 c28 -37 69 -102
92 -144 23 -43 44 -78 47 -78 11 0 -10 76 -33 121 -13 26 -46 77 -74 114 -27
36 -50 68 -50 69 0 2 21 18 48 34 26 17 67 51 92 76 24 26 47 46 50 46 3 0 24
-39 48 -87z m456 -40 c-8 -27 -17 -58 -20 -70 -3 -13 -13 -23 -20 -23 -11 0
-14 -10 -11 -37 2 -21 1 -49 -3 -63 -5 -14 -18 -62 -30 -107 -19 -71 -26 -83
-51 -93 -15 -7 -32 -9 -38 -6 -5 4 -14 -2 -20 -11 -9 -16 -10 -14 -11 9 0 20
4 26 15 22 11 -5 15 1 14 22 0 25 -1 26 -9 9 -7 -16 -9 -11 -9 20 -1 45 6 58
32 68 10 4 17 12 15 19 -1 7 20 51 49 98 28 47 63 109 77 138 14 28 28 52 31
52 2 0 -3 -21 -11 -47z m-1273 2 c-25 -8 -49 -11 -55 -7 -13 8 28 20 69 20 26
1 24 -1 -14 -13z m129 -185 c-14 -4 -34 -8 -45 -9 -16 -1 -17 1 -5 9 8 5 29 9
45 9 29 -1 29 -1 5 -9z m-257 -47 c-7 -2 -21 -2 -30 0 -10 3 -4 5 12 5 17 0
24 -2 18 -5z m1378 -70 c-19 -95 -33 -147 -48 -168 -13 -19 -14 -18 -7 10 4
17 11 39 17 50 6 11 12 31 13 45 1 14 5 36 8 50 3 14 8 38 12 53 11 54 16 18
5 -40z m-208 -90 l-5 -51 -62 -27 c-33 -15 -77 -34 -96 -42 l-35 -14 25 21
c14 12 53 45 87 73 33 29 66 63 72 76 16 33 20 24 14 -36z m327 23 c0 -2 -8
-10 -17 -17 -16 -13 -17 -12 -4 4 13 16 21 21 21 13z m-233 -132 c-9 -26 -24
-44 -45 -55 -17 -9 -29 -19 -26 -22 3 -3 1 -8 -5 -12 -12 -7 -14 9 -5 54 5 23
18 38 47 56 23 13 43 23 44 21 2 -1 -3 -20 -10 -42z m45 -46 c-7 -7 -12 -8
-12 -2 0 14 12 26 19 19 2 -3 -1 -11 -7 -17z m-68 -52 c-6 -16 -84 -80 -84
-69 0 13 13 27 50 56 41 31 41 31 34 13z m77 -79 c-10 -9 -11 -8 -5 6 3 10 9
15 12 12 3 -3 0 -11 -7 -18z m-107 -34 c-9 -37 -16 -45 -66 -73 -38 -21 -41
-21 -25 -3 9 11 17 25 17 31 0 9 68 72 77 72 2 0 0 -12 -3 -27z m-684 -18 c0
-8 -59 -36 -118 -56 -45 -15 -53 -16 -48 -4 3 9 0 15 -9 15 -31 0 -13 19 23
25 20 4 55 10 77 15 49 10 75 12 75 5z m160 -9 c0 -2 -7 -6 -15 -10 -8 -3 -15
-1 -15 4 0 6 7 10 15 10 8 0 15 -2 15 -4z m-42 -21 c-6 -6 -246 -105 -253
-105 -5 0 14 17 41 37 46 36 188 88 207 76 5 -3 7 -6 5 -8z m450 -41 c-2 -8
-50 -40 -108 -70 -58 -30 -97 -49 -86 -42 10 7 55 39 100 70 88 61 99 66 94
42z m-712 -29 c-11 -8 -29 -15 -40 -14 -17 0 -15 3 9 14 39 18 55 18 31 0z
m-81 -35 c16 -7 11 -9 -20 -9 -29 -1 -36 2 -25 9 17 11 19 11 45 0z m892 -197
c-3 -10 -5 -4 -5 12 0 17 2 24 5 18 2 -7 2 -21 0 -30z m11 -316 c-13 -25 -17
-18 -11 16 4 20 8 25 14 16 4 -7 3 -21 -3 -32z m-90 -214 c-7 -33 -7 -52 0
-64 7 -10 9 -38 5 -68 -6 -50 -7 -52 -72 -94 -78 -51 -135 -79 -166 -81 -13 0
-21 -4 -19 -7 1 -3 -27 -16 -64 -29 -37 -13 -98 -36 -137 -52 l-70 -28 45 43
c45 41 129 136 204 230 21 27 50 54 65 60 14 7 33 17 41 24 79 64 148 112 161
112 14 1 15 -5 7 -46z m-398 -243 c-104 -118 -209 -209 -282 -246 -92 -46 -95
-43 -10 12 40 25 72 50 72 54 0 5 -48 -14 -107 -41 -103 -49 -297 -119 -325
-119 -7 0 22 16 65 35 89 39 146 70 313 171 112 69 123 73 154 64 19 -5 36 -8
38 -5 7 6 -9 26 -17 21 -4 -3 -12 -1 -19 3 -7 4 23 29 80 64 50 31 93 57 96
57 2 0 -24 -31 -58 -70z m410 26 c0 -3 -4 -8 -10 -11 -5 -3 -10 -1 -10 4 0 6
5 11 10 11 6 0 10 -2 10 -4z"/>
<path d="M6100 5700 c0 -5 5 -10 10 -10 6 0 10 5 10 10 0 6 -4 10 -10 10 -5 0
-10 -4 -10 -10z"/>
<path d="M6115 5530 c-3 -5 1 -10 9 -10 9 0 16 5 16 10 0 6 -4 10 -9 10 -6 0
-13 -4 -16 -10z"/>
<path d="M6530 5010 c0 -5 5 -10 10 -10 6 0 10 5 10 10 0 6 -4 10 -10 10 -5 0
-10 -4 -10 -10z"/>
<path d="M6680 5690 c0 -5 5 -10 10 -10 6 0 10 5 10 10 0 6 -4 10 -10 10 -5 0
-10 -4 -10 -10z"/>
<path d="M6985 5500 c3 -5 11 -10 16 -10 6 0 7 5 4 10 -3 6 -11 10 -16 10 -6
0 -7 -4 -4 -10z"/>
<path d="M6360 4416 c0 -9 30 -14 35 -6 4 6 -3 10 -14 10 -12 0 -21 -2 -21 -4z"/>
<path d="M7055 3970 c-3 -5 -1 -10 4 -10 6 0 11 5 11 10 0 6 -2 10 -4 10 -3 0
-8 -4 -11 -10z"/>
<path d="M6430 3620 c0 -5 5 -10 10 -10 6 0 10 5 10 10 0 6 -4 10 -10 10 -5 0
-10 -4 -10 -10z"/>
<path d="M6370 3371 c0 -6 5 -13 10 -16 6 -3 10 1 10 9 0 9 -4 16 -10 16 -5 0
-10 -4 -10 -9z"/>
<path d="M6750 3220 c0 -5 5 -10 10 -10 6 0 10 5 10 10 0 6 -4 10 -10 10 -5 0
-10 -4 -10 -10z"/>
<path d="M6642 3163 c44 -86 78 -174 92 -238 24 -106 34 -131 48 -117 13 13
-14 151 -43 219 -26 61 -78 143 -91 143 -5 0 -8 -3 -6 -7z"/>
<path d="M6496 2993 c-11 -11 -6 -23 9 -23 8 0 15 4 15 9 0 13 -16 22 -24 14z"/>
<path d="M6836 2971 c-9 -14 2 -51 15 -51 11 0 12 30 0 49 -6 9 -11 10 -15 2z"/>
<path d="M6385 2860 c-3 -5 -1 -10 4 -10 6 0 11 5 11 10 0 6 -2 10 -4 10 -3 0
-8 -4 -11 -10z"/>
<path d="M6064 2844 c3 -9 6 -18 6 -20 0 -3 4 -2 10 1 19 12 134 -137 198
-259 35 -68 54 -76 33 -15 -16 46 -114 189 -172 254 -49 53 -88 74 -75 39z"/>
<path d="M5907 2803 c-10 -9 -9 -23 2 -23 5 0 11 7 15 15 5 15 -5 20 -17 8z"/>
<path d="M6720 2760 c0 -5 5 -10 10 -10 6 0 10 5 10 10 0 6 -4 10 -10 10 -5 0
-10 -4 -10 -10z"/>
<path d="M6071 2634 c0 -11 3 -14 6 -6 3 7 2 16 -1 19 -3 4 -6 -2 -5 -13z"/>
<path d="M6825 2469 c-10 -15 3 -25 16 -12 7 7 7 13 1 17 -6 3 -14 1 -17 -5z"/>
<path d="M6670 2390 c0 -5 5 -10 10 -10 6 0 10 5 10 10 0 6 -4 10 -10 10 -5 0
-10 -4 -10 -10z"/>
<path d="M6785 2140 c3 -5 11 -10 16 -10 6 0 7 5 4 10 -3 6 -11 10 -16 10 -6
0 -7 -4 -4 -10z"/>
<path d="M5780 2103 c0 -28 3 -34 10 -23 13 20 13 60 0 60 -5 0 -10 -17 -10
-37z"/>
<path d="M6477 2054 c-10 -11 -9 -52 2 -59 13 -8 24 32 14 50 -5 9 -12 12 -16
9z"/>
<path d="M5890 2014 c0 -8 5 -12 10 -9 6 4 8 11 5 16 -9 14 -15 11 -15 -7z"/>
<path d="M6045 2000 c-3 -5 -1 -10 4 -10 6 0 11 5 11 10 0 6 -2 10 -4 10 -3 0
-8 -4 -11 -10z"/>
<path d="M5682 1940 c0 -14 2 -19 5 -12 2 6 2 18 0 25 -3 6 -5 1 -5 -13z"/>
<path d="M6160 1820 c0 -5 4 -10 9 -10 6 0 13 5 16 10 3 6 -1 10 -9 10 -9 0
-16 -4 -16 -10z"/>
<path d="M6800 1780 c0 -5 5 -10 10 -10 6 0 10 5 10 10 0 6 -4 10 -10 10 -5 0
-10 -4 -10 -10z"/>
<path d="M6840 1759 c0 -5 5 -7 10 -4 6 3 10 8 10 11 0 2 -4 4 -10 4 -5 0 -10
-5 -10 -11z"/>
<path d="M5656 1711 c-4 -5 -2 -12 3 -15 5 -4 12 -2 15 3 4 5 2 12 -3 15 -5 4
-12 2 -15 -3z"/>
<path d="M6040 1670 c0 -11 5 -20 10 -20 6 0 10 9 10 20 0 11 -4 20 -10 20 -5
0 -10 -9 -10 -20z"/>
<path d="M5910 1655 c0 -14 6 -25 13 -25 21 0 27 11 16 31 -14 27 -29 23 -29
-6z"/>
<path d="M6360 1610 c0 -5 5 -10 10 -10 6 0 10 5 10 10 0 6 -4 10 -10 10 -5 0
-10 -4 -10 -10z"/>
<path d="M5936 1571 c-4 -7 -5 -15 -2 -18 9 -9 19 4 14 18 -4 11 -6 11 -12 0z"/>
<path d="M6470 1560 c0 -5 5 -10 11 -10 5 0 7 5 4 10 -3 6 -8 10 -11 10 -2 0
-4 -4 -4 -10z"/>
<path d="M6530 1550 c0 -5 7 -10 16 -10 8 0 12 5 9 10 -3 6 -10 10 -16 10 -5
0 -9 -4 -9 -10z"/>
<path d="M6042 1390 c0 -14 2 -19 5 -12 2 6 2 18 0 25 -3 6 -5 1 -5 -13z"/>
<path d="M5935 1309 c-10 -15 3 -25 16 -12 7 7 7 13 1 17 -6 3 -14 1 -17 -5z"/>
<path d="M5890 1300 c0 -5 5 -10 10 -10 6 0 10 5 10 10 0 6 -4 10 -10 10 -5 0
-10 -4 -10 -10z"/>
<path d="M7180 2990 c0 -5 5 -10 11 -10 5 0 7 5 4 10 -3 6 -8 10 -11 10 -2 0
-4 -4 -4 -10z"/>
<path d="M6756 1347 c6 -16 44 -40 51 -33 6 6 -37 45 -49 46 -4 0 -5 -6 -2
-13z"/>
<path d="M6838 1353 c7 -3 16 -2 19 1 4 3 -2 6 -13 5 -11 0 -14 -3 -6 -6z"/>
<path d="M6341 7904 c0 -11 3 -14 6 -6 3 7 2 16 -1 19 -3 4 -6 -2 -5 -13z"/>
<path d="M6130 7832 c-30 -15 -91 -43 -135 -62 -44 -19 -149 -69 -234 -112
-85 -42 -158 -75 -163 -72 -4 3 -8 -4 -8 -15 0 -11 9 -25 20 -31 11 -6 20 -7
20 -2 0 16 98 59 114 50 24 -13 177 53 213 92 10 10 70 47 133 82 68 37 116
70 118 81 5 23 -12 21 -78 -11z"/>
<path d="M5307 7683 c-12 -11 -8 -23 8 -23 8 0 15 -4 15 -10 0 -5 7 -10 15
-10 18 0 20 21 3 38 -13 13 -31 16 -41 5z"/>
<path d="M5590 7104 c0 -8 5 -12 10 -9 6 3 10 10 10 16 0 5 -4 9 -10 9 -5 0
-10 -7 -10 -16z"/>
<path d="M4956 7101 c-4 -7 -5 -15 -2 -18 9 -9 19 4 14 18 -4 11 -6 11 -12 0z"/>
<path d="M6430 7089 c0 -5 5 -7 10 -4 6 3 10 8 10 11 0 2 -4 4 -10 4 -5 0 -10
-5 -10 -11z"/>
<path d="M6100 6940 c0 -5 5 -10 10 -10 6 0 10 5 10 10 0 6 -4 10 -10 10 -5 0
-10 -4 -10 -10z"/>
<path d="M5915 6350 c-3 -5 -1 -10 4 -10 6 0 11 5 11 10 0 6 -2 10 -4 10 -3 0
-8 -4 -11 -10z"/>
<path d="M6900 6330 c0 -5 5 -10 10 -10 6 0 10 5 10 10 0 6 -4 10 -10 10 -5 0
-10 -4 -10 -10z"/>
<path d="M4645 6193 c-41 -67 -50 -93 -41 -129 5 -20 10 -23 21 -14 18 15 23
6 43 -90 10 -45 22 -80 27 -78 6 2 9 5 9 8 -17 70 -7 64 37 -25 27 -54 47
-105 45 -112 -3 -7 -1 -13 3 -13 5 0 22 -33 37 -72 55 -147 132 -317 159 -352
29 -38 55 -47 55 -20 0 26 -216 503 -261 577 -16 26 -29 49 -29 51 0 2 -18 35
-40 72 -33 56 -40 78 -40 120 0 28 7 68 15 87 18 42 18 47 6 47 -5 0 -26 -26
-46 -57z"/>
<path d="M6762 6161 c-18 -11 -11 -51 10 -65 28 -17 51 11 35 43 -14 28 -26
34 -45 22z"/>
<path d="M6845 6140 c-3 -5 0 -19 8 -30 13 -18 15 -19 21 -5 10 27 7 45 -8 45
-8 0 -18 -4 -21 -10z"/>
<path d="M4840 6108 c1 -21 28 -160 64 -321 39 -176 111 -376 156 -432 15 -19
33 -48 40 -65 7 -16 16 -30 21 -30 22 0 16 28 -27 127 -92 212 -171 447 -215
641 -22 95 -39 132 -39 80z"/>
<path d="M4095 5985 c-44 -19 -100 -37 -125 -40 -79 -11 -100 -16 -100 -26 0
-5 12 -9 28 -9 24 -1 21 -4 -29 -33 -30 -18 -74 -47 -97 -65 -23 -19 -42 -30
-42 -26 0 18 -46 -37 -111 -134 -55 -79 -68 -106 -59 -115 9 -9 16 -7 30 11
10 12 22 22 27 22 10 1 64 73 86 117 41 78 284 224 396 238 l54 6 -127 -128
c-83 -85 -126 -135 -126 -150 0 -12 -6 -34 -14 -50 -8 -15 -22 -53 -31 -83 -9
-30 -29 -89 -43 -130 -24 -66 -30 -74 -52 -75 -19 0 -37 16 -78 70 -38 51 -48
71 -37 73 20 4 19 18 -1 26 -35 13 -46 -23 -18 -62 19 -28 15 -28 -22 1 -17
12 -29 27 -27 34 5 14 -72 72 -186 139 -49 29 -105 73 -138 108 -54 59 -79 70
-48 22 17 -26 17 -26 -11 -28 -16 -1 -42 -1 -58 0 -16 2 -70 -11 -120 -27 -50
-16 -104 -32 -121 -36 -16 -4 -37 -12 -45 -20 -8 -7 -32 -18 -53 -25 -41 -13
-45 -36 -6 -34 13 1 58 13 99 27 41 14 116 33 165 42 50 9 110 27 134 41 l44
24 46 -43 c25 -24 96 -73 158 -110 62 -38 116 -73 120 -80 4 -7 -6 -4 -22 7
-59 38 -92 56 -164 86 -79 32 -91 35 -91 21 0 -9 73 -56 160 -103 25 -14 81
-48 125 -76 44 -28 90 -53 102 -55 22 -3 103 -86 103 -105 0 -26 -24 -19 -88
28 -63 46 -102 62 -102 42 0 -5 37 -46 83 -92 l82 -83 -60 31 c-75 38 -279
123 -364 151 -68 22 -96 17 -71 -14 22 -27 91 -58 102 -47 12 12 40 3 162 -52
44 -19 83 -41 86 -48 4 -7 15 -84 25 -171 18 -154 18 -158 -1 -172 -22 -17
-213 -148 -231 -159 -10 -5 -13 4 -13 32 0 40 1 40 98 100 95 58 141 97 130
108 -3 3 -28 -11 -54 -31 -27 -20 -77 -52 -111 -71 l-63 -35 0 75 c0 41 5 87
12 102 10 22 10 28 -5 39 -13 9 -17 27 -17 78 0 59 -11 89 -27 73 -4 -3 -8
-63 -9 -133 -5 -177 -13 -264 -25 -280 -7 -8 -7 -13 -2 -13 6 0 13 -42 16 -94
3 -57 12 -106 21 -123 8 -15 22 -43 31 -60 8 -18 20 -33 25 -33 6 0 8 -11 4
-25 -5 -19 -2 -25 10 -25 10 0 23 -15 32 -37 8 -21 21 -50 29 -65 8 -14 15
-38 15 -52 0 -14 6 -26 13 -26 6 -1 30 -33 52 -73 40 -73 41 -73 20 -89 -26
-20 -14 -34 15 -16 18 11 22 11 31 -4 5 -9 27 -39 49 -67 22 -28 36 -51 31
-51 -4 0 -14 7 -21 15 -12 14 -40 21 -40 10 0 -40 295 -288 460 -385 49 -30
74 -40 82 -32 7 7 27 2 64 -15 38 -17 59 -22 67 -15 8 7 31 2 73 -18 82 -37
378 -131 485 -154 l25 -5 -8 -73 c-12 -97 -14 -101 -35 -88 -10 5 -61 18 -113
29 -52 11 -138 29 -190 41 -52 12 -105 23 -117 26 -12 2 -34 9 -49 14 -15 6
-50 13 -78 15 -28 3 -85 12 -127 21 -70 15 -82 22 -180 100 -57 46 -137 106
-176 132 -47 30 -73 54 -73 66 0 13 -5 16 -16 12 -26 -10 -159 83 -142 99 3 3
13 -6 22 -20 9 -14 24 -25 32 -25 19 0 -5 43 -110 200 -39 58 -107 166 -152
240 -45 74 -86 135 -92 135 -19 0 -22 11 -27 101 -2 49 -10 144 -16 211 -6 67
-10 189 -7 272 2 83 1 151 -4 151 -4 0 -13 -10 -20 -22 -10 -18 -13 -106 -13
-370 l0 -347 -64 -55 c-65 -56 -81 -65 -81 -45 0 19 -112 292 -157 383 -37 74
-46 103 -54 180 -6 50 -7 141 -4 203 4 61 4 121 0 132 -12 39 -25 21 -26 -36
0 -51 -2 -55 -11 -30 -18 50 -26 28 -25 -70 1 -54 0 -129 -1 -168 -4 -84 15
-157 42 -161 10 -1 19 -4 21 -6 9 -10 125 -288 125 -300 0 -8 4 -18 9 -24 5
-5 20 -41 34 -81 24 -69 25 -72 7 -88 -24 -22 -15 -48 15 -41 20 5 24 -1 39
-57 9 -34 14 -71 10 -81 -5 -12 -2 -23 8 -30 18 -13 42 -82 33 -96 -3 -5 -1
-10 5 -10 7 0 10 -14 9 -35 -2 -23 2 -39 13 -47 9 -7 28 -49 41 -93 35 -112
86 -241 147 -375 29 -63 82 -185 117 -270 91 -218 86 -205 69 -191 -8 7 -23
11 -33 9 -15 -3 -10 -12 27 -47 35 -34 54 -67 88 -150 24 -58 46 -115 49 -125
3 -10 23 -50 45 -89 25 -46 36 -77 32 -90 -5 -15 -3 -19 9 -14 11 4 38 -43
110 -191 84 -174 235 -509 241 -537 2 -5 26 -59 54 -119 29 -60 50 -111 48
-113 -4 -5 -109 191 -216 406 -39 79 -83 162 -98 185 -14 23 -73 122 -130 221
-215 370 -252 434 -270 467 -11 18 -33 59 -51 90 -18 32 -30 62 -26 68 3 5 0
10 -7 10 -7 0 -24 21 -38 47 -40 76 -157 269 -235 388 -49 74 -91 154 -128
245 -123 304 -176 412 -313 648 -31 53 -71 122 -89 152 -18 30 -43 74 -55 98
-13 23 -28 42 -33 42 -9 0 7 -31 157 -300 48 -85 114 -211 148 -280 57 -119
148 -326 148 -339 0 -3 -33 55 -73 129 -41 74 -100 180 -132 235 -139 241
-257 501 -335 745 -19 58 -36 97 -38 87 -2 -10 4 -39 13 -65 9 -26 20 -76 25
-112 7 -66 28 -115 167 -410 33 -69 101 -215 152 -325 50 -110 139 -290 197
-400 193 -368 265 -519 269 -567 5 -50 37 -156 90 -299 19 -51 32 -95 30 -97
-3 -3 -29 46 -59 109 -48 100 -120 300 -170 469 -17 57 -50 110 -61 98 -4 -3
0 -17 9 -30 8 -13 26 -62 40 -108 30 -105 75 -239 87 -262 5 -9 10 -28 11 -42
1 -15 6 -26 10 -26 3 0 10 -10 14 -22 15 -52 107 -224 139 -263 19 -24 50 -76
69 -118 49 -107 77 -120 36 -16 -38 97 -14 59 35 -54 27 -61 64 -143 81 -180
18 -38 30 -75 27 -83 -3 -8 -1 -14 5 -14 6 0 16 -15 23 -33 7 -17 15 -36 17
-42 3 -5 -19 11 -48 35 -64 53 -200 211 -289 333 -57 78 -81 102 -81 79 0 -4
15 -31 34 -60 19 -29 37 -69 41 -88 5 -28 10 -34 24 -29 15 4 35 -15 89 -82
81 -102 183 -203 229 -226 36 -19 112 -147 87 -147 -8 0 -17 6 -20 13 -3 8
-16 12 -33 9 -57 -8 -206 74 -289 159 -42 43 -82 111 -82 139 0 12 -4 19 -9
16 -10 -7 -69 128 -77 176 l-5 33 14 -30 c8 -17 22 -36 31 -44 11 -9 4 13 -19
60 -19 41 -39 75 -44 77 -18 6 -18 -75 0 -143 40 -146 52 -183 90 -268 22 -48
37 -92 34 -98 -4 -5 -3 -8 2 -7 8 3 113 -104 113 -115 0 -4 -7 -7 -15 -7 -29
0 -14 -30 28 -53 133 -77 232 -121 330 -150 l111 -33 75 -125 c41 -68 118
-209 171 -314 93 -182 99 -190 129 -193 17 -2 31 0 31 5 0 4 -33 75 -74 158
-41 82 -93 195 -116 250 -24 55 -51 118 -61 140 -148 327 -220 493 -218 510 3
41 -2 53 -53 136 -45 74 -165 339 -153 339 10 0 335 -662 330 -671 -4 -5 -1
-9 4 -9 13 0 92 -155 84 -164 -4 -3 -1 -6 5 -6 6 0 68 -111 136 -247 69 -137
131 -257 140 -268 29 -39 27 -6 -3 52 -17 32 -33 73 -37 90 -4 18 -10 31 -14
28 -11 -7 -243 454 -244 485 -1 14 -6 24 -13 23 -13 -3 -233 425 -233 452 0 7
-4 15 -8 17 -19 7 -113 196 -102 203 6 4 12 5 14 4 21 -30 176 -323 176 -334
0 -9 4 -14 9 -11 5 3 30 -43 57 -102 27 -59 76 -161 109 -227 34 -66 60 -126
57 -134 -3 -8 0 -11 6 -8 8 6 103 -177 294 -567 49 -101 64 -124 73 -114 9 8
-6 69 -45 183 -16 49 -28 96 -25 102 2 7 1 13 -4 13 -4 0 -21 30 -36 68 -24
57 -99 221 -112 244 -2 4 3 5 11 2 21 -8 20 7 -3 58 -91 199 -149 342 -144
356 3 12 2 14 -4 4 -11 -14 -115 196 -185 373 -22 55 -59 141 -83 190 -24 50
-41 92 -39 94 8 9 56 -32 77 -67 65 -102 107 -172 132 -216 27 -47 27 -48 7
-42 -36 12 -26 -18 12 -36 28 -14 42 -34 85 -123 28 -58 51 -109 51 -114 0 -4
14 -35 30 -69 17 -34 30 -65 30 -67 0 -3 19 -54 41 -113 159 -413 219 -580
226 -629 3 -24 9 -40 14 -37 5 2 11 -8 15 -23 4 -15 10 -30 14 -33 3 -3 24
-38 45 -77 22 -40 45 -73 52 -73 14 0 -1 46 -74 220 -49 119 -58 141 -103 260
-73 197 -190 486 -243 601 -19 41 -53 113 -75 161 l-40 86 37 -15 c20 -8 41
-18 46 -22 6 -4 38 -18 73 -31 34 -12 61 -24 59 -26 -2 -3 -23 3 -47 11 -48
17 -70 19 -70 7 0 -10 217 -84 318 -108 42 -10 68 -20 61 -24 -7 -5 13 -13 47
-20 32 -6 95 -23 140 -37 l80 -26 -13 -86 c-7 -47 -13 -112 -13 -145 l0 -59
-40 7 c-23 3 -49 10 -58 15 -9 5 -42 16 -72 25 -63 18 -200 101 -230 139 -22
27 -26 42 -10 32 15 -9 12 8 -4 31 -11 15 -17 16 -27 7 -9 -9 -6 -24 15 -66
14 -30 26 -59 26 -65 0 -7 5 -12 11 -12 6 0 27 -15 47 -34 21 -19 48 -44 62
-55 24 -20 24 -20 3 -21 -12 0 -33 14 -48 31 -31 37 -44 32 -19 -7 l18 -27
-53 7 c-41 5 -52 4 -49 -6 3 -8 28 -15 66 -18 85 -7 107 -30 29 -30 -58 0 -76
-13 -34 -24 12 -3 48 -6 80 -6 62 0 102 -14 91 -32 -4 -6 -3 -8 3 -5 6 4 28 1
49 -7 22 -7 60 -16 86 -20 41 -6 69 -28 50 -40 -9 -5 -63 -8 -121 -7 -35 1
-49 7 -78 36 -39 39 -43 41 -43 21 0 -22 65 -74 107 -85 48 -14 59 -13 105 3
25 9 38 10 41 3 7 -21 27 5 28 36 1 22 3 25 6 11 2 -12 13 -30 24 -40 20 -18
21 -18 32 1 10 19 11 92 1 128 -4 12 0 17 15 17 26 0 28 16 3 22 -21 6 -32 80
-32 225 l0 82 103 -5 c68 -3 95 -1 82 5 -19 9 -19 10 3 10 52 2 15 19 -78 35
l-100 18 0 72 c0 39 5 77 11 83 6 6 11 40 10 75 -1 61 7 113 83 538 28 156 44
258 50 315 2 22 9 78 15 125 6 47 16 132 23 190 l13 105 6 -80 c4 -44 10 -126
14 -183 8 -105 18 -121 42 -71 12 25 13 54 9 364 -1 99 2 227 7 285 4 58 10
231 11 385 4 358 21 604 43 620 11 9 13 14 5 19 -7 4 -12 31 -12 62 0 83 -24
68 -32 -21 -2 -21 -9 -31 -23 -32 -19 -3 -19 -3 -1 5 14 6 16 11 7 16 -7 5
-20 1 -30 -8 -25 -22 -58 -20 -64 4 -6 23 12 21 -249 24 -175 2 -189 3 -210
23 -27 24 -92 58 -238 123 -78 34 -134 69 -217 133 -62 49 -113 95 -113 104 0
14 2 14 19 -1 11 -10 24 -15 29 -12 6 3 -42 59 -107 123 -135 137 -206 228
-95 122 38 -36 92 -85 119 -109 28 -24 58 -58 69 -75 25 -41 26 -41 36 -26 7
12 13 12 35 -3 46 -30 50 -11 4 24 -44 33 -78 69 -79 81 0 4 39 -13 86 -37 83
-41 230 -84 291 -84 17 0 82 -14 145 -30 120 -31 291 -64 393 -75 33 -3 72 -8
88 -11 41 -8 32 13 -10 23 -38 9 -38 9 26 16 71 8 83 13 61 27 -22 14 -68 12
-147 -6 -75 -17 -80 -16 -418 56 -22 5 -71 20 -110 34 -51 18 -71 22 -77 13
-19 -31 -342 104 -360 152 -7 21 -6 22 7 11 28 -23 28 -1 1 35 -20 25 -33 63
-46 128 -34 169 -40 148 86 283 98 105 121 124 198 164 74 38 86 48 81 66 -4
17 4 25 46 44 48 23 82 50 62 50 -6 0 -8 11 -5 25 5 28 -7 32 -41 13 -29 -15
-104 -72 -147 -112 -19 -17 -65 -56 -102 -85 -38 -29 -68 -58 -68 -65 0 -13
-132 -146 -146 -146 -5 0 -16 -16 -26 -34 -15 -30 -15 -35 -1 -49 8 -8 21 -48
28 -88 12 -74 13 -99 0 -60 -3 12 -13 21 -20 21 -12 0 -9 -16 11 -72 15 -40
33 -86 41 -101 l14 -28 -40 26 c-22 15 -43 25 -48 22 -4 -3 -30 14 -56 37
l-49 42 32 134 c38 163 49 187 144 314 90 120 221 226 304 246 28 6 58 20 68
31 16 18 16 19 -7 19 -43 0 -154 -21 -163 -31 -6 -5 -14 -9 -19 -9 -5 0 -1 7
7 16 17 16 13 34 -7 34 -7 -1 -48 -16 -92 -35z m105 -49 c0 -3 -4 -8 -10 -11
-5 -3 -10 -1 -10 4 0 6 5 11 10 11 6 0 10 -2 10 -4z m-295 -845 c11 -14 -12 2
-51 35 -45 38 -69 65 -66 75 3 15 52 -30 117 -110z m-119 48 c46 -38 84 -73
84 -76 0 -7 -17 6 -108 84 -40 35 -70 63 -66 63 4 0 44 -32 90 -71z m255 -56
c8 -10 -5 -3 -28 16 -24 18 -43 35 -43 38 0 7 55 -34 71 -54z m-164 -70 c38
-34 58 -116 62 -263 4 -167 29 -289 71 -358 12 -20 26 -32 34 -29 8 3 31 -14
54 -39 21 -24 34 -44 27 -44 -18 0 -26 -27 -12 -38 7 -5 23 -13 37 -17 14 -4
45 -26 70 -49 25 -23 91 -79 148 -125 56 -46 102 -87 102 -90 0 -7 143 -80
220 -112 30 -13 62 -31 70 -40 8 -9 54 -29 103 -44 73 -23 87 -31 87 -49 0
-11 3 -38 7 -59 l6 -39 -39 20 c-21 11 -115 48 -209 82 -93 34 -174 68 -178
76 -5 8 -66 53 -135 99 -70 46 -156 107 -192 136 -90 70 -150 105 -159 91 -9
-15 -71 80 -141 213 -111 212 -144 266 -162 262 -36 -10 -65 132 -72 361 l-6
172 87 -44 c49 -25 102 -58 120 -73z m142 -66 c16 10 17 8 13 -12 -4 -23 1
-28 133 -130 11 -8 -7 -3 -40 11 -33 14 -64 30 -69 35 -15 14 -38 11 -34 -5 2
-8 54 -48 116 -89 l114 -74 -81 -7 c-119 -11 -111 -26 15 -26 114 0 102 3 269
-75 64 -30 83 -34 197 -40 51 -3 127 -10 168 -16 226 -31 270 -38 282 -50 14
-13 10 -93 -13 -279 -6 -47 -13 -172 -16 -279 -5 -167 -8 -192 -19 -176 -10
13 -14 50 -14 114 0 100 -14 243 -26 275 -6 16 -5 17 15 6 13 -6 25 -10 27 -7
5 5 -83 86 -131 122 -135 98 -199 146 -256 192 -64 51 -109 68 -109 39 0 -7 7
-19 15 -26 22 -18 12 -22 -21 -9 -46 17 -444 97 -444 88 0 -12 85 -37 240 -69
80 -16 163 -34 185 -41 68 -19 158 -71 211 -121 28 -26 84 -72 125 -101 135
-94 127 -83 139 -183 14 -128 13 -247 -2 -241 -7 2 -67 21 -133 42 -233 72
-384 160 -557 325 l-73 70 60 -6 c72 -7 192 -46 250 -79 48 -29 55 -30 55 -11
0 40 -194 121 -352 146 -72 12 -79 15 -126 64 -43 44 -53 64 -81 151 -17 55
-36 125 -41 155 -16 92 -49 272 -55 302 -6 28 -6 28 20 16 20 -9 31 -9 44 -1z
m-360 -306 c7 -11 16 -21 21 -21 5 0 26 -30 46 -67 21 -38 50 -86 64 -108 15
-22 51 -96 80 -165 29 -69 67 -145 83 -169 58 -85 94 -106 83 -48 -4 24 -3 28
5 15 5 -10 52 -45 104 -79 52 -33 95 -65 95 -70 0 -5 6 -9 13 -9 8 0 58 -25
113 -56 54 -31 90 -52 79 -48 -21 9 -78 10 -200 5 -68 -3 -369 -44 -410 -56
-15 -5 -25 1 -38 24 -9 16 -37 53 -60 83 -24 29 -55 71 -70 93 l-27 40 47 24
c57 28 179 71 205 71 10 0 18 7 18 15 0 13 -7 15 -37 9 -49 -9 -159 -49 -201
-75 -19 -10 -37 -17 -42 -14 -5 3 -26 33 -46 67 -36 59 -37 61 -18 75 31 24
147 89 182 103 59 23 33 50 -50 50 -53 0 -48 -20 5 -21 l42 -1 -30 -11 c-16
-7 -67 -30 -113 -53 -78 -38 -84 -40 -93 -22 -11 20 14 47 149 168 78 70 82
98 5 32 -66 -56 -182 -137 -187 -131 -14 17 -26 52 -19 58 4 4 54 40 110 79
56 40 105 77 108 83 18 28 -13 15 -102 -44 -142 -94 -136 -91 -157 -55 -10 17
-22 63 -27 102 -7 68 -6 72 19 99 14 15 57 49 95 74 39 26 84 61 101 78 l31
30 6 -66 c4 -36 12 -76 18 -88z m652 47 l24 -17 -30 10 c-16 5 -41 19 -55 29
l-25 20 31 -12 c17 -7 41 -21 55 -30z m-313 -198 c-1 -30 -26 86 -26 120 0 22
5 10 13 -35 7 -38 13 -77 13 -85z m397 140 c3 -6 -1 -7 -9 -4 -18 7 -21 14 -7
14 6 0 13 -4 16 -10z m170 -50 c19 -8 19 -9 -2 -9 -12 -1 -25 4 -28 9 -7 12 2
12 30 0z m611 -132 c-3 -18 -9 -69 -13 -113 l-7 -80 -11 80 c-13 105 -9 145
17 145 16 0 18 -5 14 -32z m-42 -378 c-6 -87 -34 -340 -38 -355 -8 -23 5 330
16 450 l12 130 8 -75 c4 -41 5 -109 2 -150z m-1164 78 c17 -32 30 -58 27 -58
-8 0 -77 112 -77 124 0 16 15 -4 50 -66z m-587 -208 c39 -69 91 -156 115 -194
71 -110 70 -115 -59 -231 -60 -54 -116 -106 -125 -116 -16 -17 -15 -18 19 -16
31 2 51 17 142 105 l105 103 51 -40 50 -40 -73 -42 c-83 -48 -167 -116 -199
-160 -34 -48 -17 -43 41 12 29 27 60 49 69 47 19 -3 81 33 130 74 18 16 40 27
47 24 8 -3 76 -52 150 -108 215 -163 223 -168 260 -168 24 0 34 5 34 15 0 8 4
15 9 15 23 0 208 -44 336 -80 182 -51 339 -90 365 -90 19 0 20 -4 14 -57 -3
-32 -10 -89 -15 -128 -6 -38 -12 -92 -15 -120 -7 -83 -15 -155 -18 -155 -2 0
-30 8 -62 19 -145 46 -309 92 -434 121 -161 38 -320 110 -543 246 -140 85
-160 101 -151 115 4 7 -47 49 -60 49 -15 0 -2 -26 39 -80 51 -66 102 -112 192
-173 35 -24 63 -51 65 -62 2 -14 11 -20 28 -20 14 0 84 -30 156 -67 72 -36
151 -72 175 -79 57 -16 62 -20 177 -126 114 -106 211 -187 218 -181 6 7 -269
258 -319 291 -15 10 -27 21 -27 26 0 11 102 -27 111 -41 3 -5 19 -8 35 -6 27
4 24 7 -36 35 -36 17 -59 32 -52 32 17 1 151 -33 262 -66 47 -14 112 -32 145
-40 33 -8 65 -16 71 -18 8 -2 8 -22 2 -67 -5 -34 -10 -141 -11 -235 -2 -202 8
-190 -129 -147 -183 56 -400 144 -567 229 -125 63 -316 182 -375 233 -24 22
-41 30 -45 23 -16 -26 -57 28 -119 158 -35 74 -65 145 -66 157 0 12 -3 21 -6
19 -6 -4 -48 87 -142 305 -27 63 -54 124 -59 135 -14 31 -69 185 -84 234 l-14
44 39 46 c21 25 59 66 84 91 25 24 46 49 46 54 0 5 9 20 21 32 11 12 17 24 12
27 -11 7 -62 -40 -151 -136 l-62 -68 -10 26 c-13 35 -14 33 23 48 46 20 182
151 172 167 -6 9 -13 6 -26 -11 -10 -13 -19 -18 -19 -11 0 26 -28 9 -95 -58
-48 -48 -71 -66 -77 -57 -14 22 -9 31 62 125 69 90 83 122 57 122 -12 0 -82
-80 -128 -148 -17 -24 -17 -24 -36 40 l-20 63 66 62 c36 34 74 62 84 63 11 0
17 8 17 23 0 16 9 7 31 -33 17 -30 63 -111 102 -180z m777 79 l25 -21 -33 19
c-19 10 -50 33 -70 51 l-37 34 45 -31 c25 -18 56 -41 70 -52z m105 -269 c105
-27 200 -27 217 0 10 16 15 17 28 6 18 -16 138 -67 315 -134 l130 -49 3 -137
c2 -120 1 -136 -14 -136 -13 0 -15 11 -12 72 4 94 -17 105 -27 13 -3 -36 -8
-65 -11 -65 -9 0 -164 43 -239 67 -124 39 -222 63 -273 68 -26 3 -64 7 -84 9
-21 3 -88 31 -148 62 l-110 58 75 13 c90 15 148 38 142 55 -2 7 -15 12 -28 10
-13 -2 -83 -6 -155 -9 l-132 -5 -52 39 c-50 37 -51 38 -23 40 78 7 210 26 228
34 34 13 88 10 170 -11z m753 -99 c2 -33 -1 -61 -5 -61 -21 1 -31 20 -36 77
-5 60 -4 61 17 54 18 -7 21 -17 24 -70z m56 -13 c7 -67 5 -73 -19 -65 -20 8
-22 127 -1 127 9 0 15 -20 20 -62z m-68 -86 c10 -7 0 -259 -11 -270 -3 -3 -5
38 -5 90 0 52 -3 116 -6 142 -6 44 -1 54 22 38z m70 -80 c-3 -26 -8 -83 -11
-127 -7 -103 -52 -361 -62 -351 -3 2 0 35 5 73 6 37 16 159 23 270 11 193 13
202 31 192 15 -8 18 -18 14 -57z m-2094 -236 c60 -120 78 -173 23 -68 -16 31
-60 114 -97 184 -38 70 -68 131 -68 135 0 14 82 -131 142 -251z m1971 -79 c-5
-88 -8 -97 -26 -97 -18 0 -19 5 -13 61 3 34 6 75 6 90 0 19 5 29 15 29 8 0 15
5 15 12 0 6 2 9 4 7 3 -2 2 -48 -1 -102z m38 -17 c-7 -61 -9 -67 -10 -29 -1
53 12 154 16 124 2 -11 -1 -54 -6 -95z m-1814 -172 c59 -96 93 -153 195 -333
86 -151 108 -194 108 -216 0 -30 14 -76 41 -136 32 -73 21 -62 -25 23 -24 45
-82 148 -129 231 -47 82 -107 194 -133 249 -56 118 -133 294 -129 294 1 0 34
-51 72 -112z m1864 -35 c-12 -76 -30 -201 -42 -278 -29 -202 -39 -240 -33
-130 11 180 33 361 47 390 8 17 20 61 27 98 22 121 23 63 1 -80z m-106 -10
c-8 -130 -82 -514 -84 -438 -1 27 28 313 39 395 5 36 10 84 10 108 0 36 3 42
21 42 20 0 20 -3 14 -107z m-1075 -473 c147 -87 223 -136 195 -125 -11 4 -85
32 -164 62 -79 30 -146 52 -149 49 -7 -8 61 -37 268 -116 100 -38 222 -93 285
-129 61 -34 103 -60 95 -58 -8 3 -53 18 -100 33 -47 15 -159 51 -249 80 -90
30 -172 54 -182 54 -10 0 -20 4 -23 9 -3 4 -19 11 -36 14 -27 6 -36 19 -90
128 -33 67 -60 123 -60 126 0 2 19 -9 43 -25 23 -16 98 -62 167 -102z m-580
65 c0 -5 -5 -3 -10 5 -5 8 -10 20 -10 25 0 6 5 3 10 -5 5 -8 10 -19 10 -25z
m94 -78 c25 -46 94 -190 155 -319 60 -130 145 -299 188 -375 87 -151 119 -220
110 -229 -3 -4 2 -14 12 -23 18 -15 151 -305 151 -326 -1 -17 -30 28 -30 46 0
9 -6 19 -13 22 -14 5 -117 177 -117 196 0 6 -4 11 -9 11 -5 0 -18 17 -29 38
-10 20 -37 71 -59 112 -22 41 -73 149 -113 240 -39 91 -99 221 -132 290 -48
101 -168 383 -168 397 0 13 15 -8 54 -80z m1511 -147 c-12 -144 -22 -219 -29
-217 -6 2 -12 19 -14 37 -6 59 44 417 56 405 3 -2 -3 -104 -13 -225z m-33 135
c-2 -14 -6 -25 -8 -25 -2 0 -4 11 -4 25 0 14 4 25 9 25 4 0 6 -11 3 -25z m105
-32 c-3 -10 -5 -4 -5 12 0 17 2 24 5 18 2 -7 2 -21 0 -30z m-1307 -254 c0 -5
-4 -9 -10 -9 -5 0 -10 4 -10 9 0 4 -11 19 -24 32 -19 20 -86 171 -86 196 0 4
29 -44 65 -106 36 -63 65 -117 65 -122z m593 16 c103 -33 181 -63 184 -72 4
-10 14 -12 33 -8 20 4 61 -6 142 -38 127 -50 209 -72 238 -64 17 4 20 0 20
-26 0 -56 -22 -262 -29 -268 -3 -4 -58 5 -121 20 -121 28 -589 207 -634 242
-13 11 -43 54 -67 97 -23 42 -50 88 -59 102 -9 14 -30 45 -47 70 -16 25 -33
50 -36 56 -4 7 39 -3 96 -21 56 -18 182 -59 280 -90z m-834 30 c0 -5 -6 1 -14
15 -8 14 -14 30 -14 35 0 6 6 -1 14 -15 8 -14 14 -29 14 -35z m1124 -55 c65
-22 134 -42 154 -46 19 -4 37 -13 40 -21 4 -10 9 -11 18 -3 9 7 21 7 41 -1 16
-7 39 -11 50 -10 16 2 23 -5 26 -24 5 -24 -6 -46 -14 -26 -1 5 -48 20 -103 34
-55 13 -152 48 -215 76 -165 75 -164 77 3 21z m-663 -105 c0 -5 -5 -3 -10 5
-5 8 -10 20 -10 25 0 6 5 3 10 -5 5 -8 10 -19 10 -25z m465 -225 c3 -6 -1 -7
-9 -4 -18 7 -21 14 -7 14 6 0 13 -4 16 -10z m-1035 -79 c-1 -10 -6 -7 -15 9
-19 33 -18 50 0 26 8 -11 15 -27 15 -35z m187 -190 c23 -15 30 -27 26 -39 -6
-15 -5 -15 10 -4 14 12 26 11 78 -7 33 -12 83 -26 110 -32 46 -10 52 -15 74
-60 14 -27 24 -54 23 -61 -2 -7 2 -12 9 -11 6 1 14 -4 17 -12 3 -8 0 -15 -7
-15 -7 0 -3 -7 7 -15 11 -8 16 -15 10 -15 -15 1 -69 32 -141 82 -90 61 -180
108 -209 108 -17 0 -34 17 -67 68 -24 37 -52 83 -62 102 -17 34 -16 34 36 -16
30 -28 68 -61 86 -73z m1456 92 c-7 -2 -19 -2 -25 0 -7 3 -2 5 12 5 14 0 19
-2 13 -5z m-844 -98 c0 -5 -8 6 -19 25 -11 19 -19 40 -19 45 0 6 8 -6 19 -25
11 -19 19 -39 19 -45z m382 -102 c13 -16 12 -17 -3 -4 -17 13 -22 21 -14 21 2
0 10 -8 17 -17z m369 -59 c0 -30 -4 -54 -10 -54 -5 0 -8 26 -7 59 3 73 17 70
17 -5z m-1280 26 c22 -11 40 -25 40 -30 0 -11 -41 8 -75 34 -28 22 -11 20 35
-4z m1100 -59 l25 -12 -25 6 c-14 2 -38 5 -55 5 -21 0 -44 12 -75 40 l-45 40
75 -34 c41 -18 86 -38 100 -45z m-1000 -7 c0 -2 -11 2 -25 8 -14 6 -25 15 -25
20 0 5 11 1 25 -8 14 -9 25 -18 25 -20z m935 -34 c8 -13 -35 -13 -55 0 -11 7
-7 10 17 10 17 0 35 -4 38 -10z m85 0 c20 -6 21 -8 5 -8 -11 0 -29 3 -40 8
-25 11 1 11 35 0z m160 -35 c0 -8 -4 -15 -10 -15 -5 0 -10 7 -10 15 0 8 5 15
10 15 6 0 10 -7 10 -15z m-120 -26 c25 -6 49 -15 53 -19 13 -11 -72 6 -118 25
-34 13 -36 15 -10 11 17 -2 50 -10 75 -17z m127 -34 c9 -24 -1 -27 -15 -5 -8
13 -8 20 -2 20 6 0 13 -7 17 -15z m-843 -71 c3 -8 2 -12 -4 -9 -6 3 -10 10
-10 16 0 14 7 11 14 -7z"/>
<path d="M4918 4364 c-5 -4 -8 -16 -8 -28 0 -14 3 -17 11 -9 6 6 9 19 7 28 -1
9 -6 13 -10 9z"/>
<path d="M4967 4103 c-11 -10 -8 -71 3 -78 6 -4 10 12 10 39 0 47 -2 51 -13
39z"/>
<path d="M4060 3970 c0 -5 5 -10 10 -10 6 0 10 5 10 10 0 6 -4 10 -10 10 -5 0
-10 -4 -10 -10z"/>
<path d="M3650 3365 c-60 -33 -66 -34 -77 -18 -7 9 -16 14 -19 10 -4 -4 -2
-13 5 -21 9 -11 4 -21 -24 -49 -19 -19 -35 -40 -35 -45 0 -16 86 -84 215 -168
204 -133 409 -231 459 -218 12 3 46 -4 77 -16 107 -43 406 -126 416 -116 4 3
4 8 1 11 -2 3 -107 36 -231 75 -238 73 -327 111 -495 213 l-102 62 52 8 c29 5
112 7 183 5 124 -4 133 -5 197 -38 37 -18 71 -30 75 -26 10 10 -20 32 -87 65
-49 23 -69 26 -188 29 -73 2 -162 -1 -198 -7 l-66 -12 -55 38 c-92 63 -77 70
45 18 35 -14 71 -25 80 -23 9 2 -21 19 -67 38 l-83 35 60 26 c55 25 86 49 64
49 -6 0 -40 -13 -77 -30 -55 -25 -70 -28 -88 -18 -32 16 -77 51 -77 58 0 7
103 60 117 60 5 0 18 9 28 20 18 20 17 20 -11 20 -16 0 -58 -16 -94 -35z m-10
-115 c28 -25 39 -40 29 -40 -9 0 -22 -7 -29 -15 -10 -12 -9 -15 6 -15 11 0 51
-23 89 -50 39 -28 81 -58 95 -67 125 -82 165 -105 228 -138 125 -66 69 -51
-70 18 -177 88 -407 232 -448 282 -10 12 -7 19 16 40 15 14 30 25 33 25 3 -1
26 -19 51 -40z"/>
<path d="M4661 2914 c0 -11 3 -14 6 -6 3 7 2 16 -1 19 -3 4 -6 -2 -5 -13z"/>
<path d="M4748 2873 c7 -3 16 -2 19 1 4 3 -2 6 -13 5 -11 0 -14 -3 -6 -6z"/>
<path d="M4630 2823 c0 -10 5 -25 10 -33 7 -11 10 -7 10 18 0 17 -4 32 -10 32
-5 0 -10 -8 -10 -17z"/>
<path d="M4682 2789 c2 -6 8 -10 13 -10 5 0 11 4 13 10 2 6 -4 11 -13 11 -9 0
-15 -5 -13 -11z"/>
<path d="M4210 2582 c48 -33 156 -131 249 -226 87 -89 111 -108 111 -88 0 12
-239 245 -298 291 -30 22 -61 41 -70 40 -13 0 -11 -4 8 -17z"/>
<path d="M4376 2401 c-4 -7 -5 -15 -2 -18 9 -9 19 4 14 18 -4 11 -6 11 -12 0z"/>
<path d="M4294 2339 c-3 -6 -1 -16 5 -22 8 -8 11 -5 11 11 0 24 -5 28 -16 11z"/>
<path d="M4245 2320 c3 -5 8 -10 11 -10 2 0 4 5 4 10 0 6 -5 10 -11 10 -5 0
-7 -4 -4 -10z"/>
<path d="M4735 2260 c-3 -5 -1 -10 4 -10 6 0 11 5 11 10 0 6 -2 10 -4 10 -3 0
-8 -4 -11 -10z"/>
<path d="M4652 2169 c2 -6 8 -10 13 -10 5 0 11 4 13 10 2 6 -4 11 -13 11 -9 0
-15 -5 -13 -11z"/>
<path d="M4300 3686 c0 -7 7 -19 15 -26 8 -7 15 -21 15 -31 0 -30 236 -189
259 -174 18 11 12 53 -11 75 -12 11 -61 40 -110 66 -49 25 -104 59 -122 75
-38 32 -46 35 -46 15z"/>
<path d="M4050 2070 c0 -5 5 -10 10 -10 6 0 10 5 10 10 0 6 -4 10 -10 10 -5 0
-10 -4 -10 -10z"/>
<path d="M4321 2034 c0 -11 3 -14 6 -6 3 7 2 16 -1 19 -3 4 -6 -2 -5 -13z"/>
<path d="M4125 1980 c-3 -6 1 -13 10 -16 19 -8 30 0 20 15 -8 14 -22 14 -30 1z"/>
<path d="M4282 1949 c2 -7 10 -15 17 -17 8 -3 12 1 9 9 -2 7 -10 15 -17 17 -8
3 -12 -1 -9 -9z"/>
<path d="M4190 1915 c0 -8 7 -15 15 -15 8 0 15 7 15 15 0 8 -7 15 -15 15 -8 0
-15 -7 -15 -15z"/>
<path d="M2855 5930 c-10 -17 38 -39 133 -61 97 -22 123 -36 47 -25 -99 15
-25 -23 100 -52 83 -19 159 -26 243 -23 46 2 44 31 -2 31 -26 0 -36 5 -41 19
-4 15 -21 23 -63 31 -31 6 -128 29 -215 51 -166 41 -192 45 -202 29z"/>
<path d="M2690 5873 c-160 -67 -238 -110 -364 -204 -105 -80 -155 -134 -137
-152 12 -12 31 0 31 19 0 8 5 14 10 14 6 0 10 -6 10 -12 0 -7 43 -63 94 -125
81 -95 93 -113 80 -124 -12 -10 -20 -7 -43 15 -35 34 -50 21 -16 -14 l25 -26
-47 -22 c-27 -12 -79 -33 -118 -47 -71 -26 -119 -60 -109 -77 4 -5 18 -7 33
-4 23 6 24 5 9 -7 -19 -15 -24 -42 -9 -52 6 -3 61 31 123 76 154 111 151 110
191 68 59 -64 234 -196 244 -185 9 9 -34 52 -85 88 -24 17 -40 34 -35 38 26
25 155 52 258 55 61 2 148 11 195 20 47 9 95 18 107 19 32 3 69 54 56 75 -30
48 -337 5 -527 -75 -44 -19 -89 -43 -101 -54 l-22 -21 -51 43 c-59 50 -57 74
6 53 38 -14 52 -12 52 7 0 6 -33 44 -74 84 -41 40 -94 99 -117 131 -24 32 -53
70 -66 84 l-23 25 44 32 c26 19 47 28 51 22 12 -19 33 -10 151 67 66 42 166
102 224 132 58 31 105 61 105 66 0 22 -46 13 -155 -32z m-165 -121 c-18 -15
-85 -54 -85 -48 0 3 19 16 43 30 43 26 59 33 42 18z"/>
<path d="M4970 5890 c0 -5 5 -10 10 -10 6 0 10 5 10 10 0 6 -4 10 -10 10 -5 0
-10 -4 -10 -10z"/>
<path d="M4531 5840 c-71 -26 -125 -54 -184 -97 -58 -42 -72 -65 -57 -93 12
-23 21 -25 38 -8 9 9 12 4 12 -22 1 -19 7 -64 15 -100 22 -99 16 -114 -12 -32
-22 66 -43 93 -43 58 0 -59 172 -455 198 -456 9 0 8 9 -4 38 -9 20 -20 56 -24
79 l-7 43 85 -45 c46 -25 89 -45 95 -45 23 0 -32 44 -89 71 -72 34 -95 55 -67
62 17 4 17 4 -1 12 -12 5 -21 3 -26 -6 -5 -7 -11 -11 -13 -9 -19 23 -77 240
-77 289 0 16 16 13 157 -35 86 -30 160 -54 165 -54 5 0 8 8 6 17 -2 10 -24 25
-53 36 -62 23 -229 67 -254 67 -25 0 -39 54 -19 77 25 31 169 132 203 143 19
6 35 16 35 21 0 13 -18 11 -79 -11z m-107 -556 c3 -8 2 -12 -4 -9 -6 3 -10 10
-10 16 0 14 7 11 14 -7z"/>
<path d="M7950 5783 c-14 -3 -39 -16 -57 -29 -39 -30 -47 -30 -125 -1 -58 20
-79 22 -258 21 -251 -2 -498 -39 -468 -70 4 -3 30 -1 59 5 64 14 386 41 479
41 49 -1 61 -3 47 -11 -9 -5 -22 -7 -27 -4 -12 7 -272 -21 -349 -38 -30 -7
-56 -18 -59 -25 -5 -16 88 -9 217 15 69 13 130 15 330 10 146 -4 274 -12 314
-20 64 -13 69 -13 80 4 7 11 20 19 30 19 17 0 18 -6 12 -67 -4 -38 -10 -71
-14 -75 -3 -4 -24 -8 -46 -10 -48 -4 -57 -31 -12 -36 17 -2 26 -8 23 -15 -3
-7 -13 -37 -23 -67 l-18 -55 -3 53 c-2 28 -7 52 -11 52 -15 0 -18 -24 -10 -80
13 -95 11 -118 -11 -125 -26 -8 -26 -21 0 -28 19 -5 31 4 37 28 2 6 13 48 26
95 l23 85 32 -3 c22 -2 34 2 38 12 3 9 15 16 25 16 28 0 23 17 -6 24 -31 8
-33 24 -2 28 21 3 22 7 21 80 -1 71 0 77 20 80 11 2 22 10 24 20 2 12 -7 18
-40 23 -24 4 -77 15 -118 25 -90 22 -146 29 -180 23z m23 -30 c-7 -2 -19 -2
-25 0 -7 3 -2 5 12 5 14 0 19 -2 13 -5z m-286 -19 c-3 -3 -12 -4 -19 -1 -8 3
-5 6 6 6 11 1 17 -2 13 -5z m535 -149 c3 -14 1 -25 -3 -25 -5 0 -9 11 -9 25 0
14 2 25 4 25 2 0 6 -11 8 -25z"/>
<path d="M4484 5701 c10 -15 275 -161 293 -161 32 0 -15 35 -142 104 -109 60
-166 81 -151 57z"/>
<path d="M7557 5654 c-13 -13 -7 -24 14 -24 11 0 19 5 17 12 -5 14 -22 21 -31
12z"/>
<path d="M2750 5498 c0 -9 5 -20 10 -23 13 -8 13 5 0 25 -8 13 -10 13 -10 -2z"/>
<path d="M5690 5470 c0 -5 5 -10 11 -10 5 0 7 5 4 10 -3 6 -8 10 -11 10 -2 0
-4 -4 -4 -10z"/>
<path d="M4410 5462 c0 -5 42 -19 93 -31 50 -13 123 -34 161 -47 46 -17 73
-21 79 -15 11 11 -1 16 -108 53 -52 17 -189 48 -216 48 -5 0 -9 -4 -9 -8z"/>
<path d="M2760 5444 c0 -8 5 -12 10 -9 6 4 8 11 5 16 -9 14 -15 11 -15 -7z"/>
<path d="M5427 5432 c-18 -20 -22 -42 -9 -42 10 0 35 50 29 56 -2 2 -11 -4
-20 -14z"/>
<path d="M4850 5400 c0 -5 9 -10 20 -10 11 0 20 5 20 10 0 6 -9 10 -20 10 -11
0 -20 -4 -20 -10z"/>
<path d="M7518 5399 c-41 -12 -83 -49 -55 -49 9 0 19 5 22 10 8 14 191 13 290
-2 46 -6 90 -8 101 -3 10 4 31 9 46 10 42 4 63 14 52 25 -15 15 -410 22 -456
9z"/>
<path d="M7367 5273 c-12 -11 -8 -23 8 -23 8 0 15 7 15 15 0 16 -12 20 -23 8z"/>
<path d="M4676 5254 c-9 -24 -7 -28 9 -14 17 14 20 30 6 30 -5 0 -12 -7 -15
-16z"/>
<path d="M4970 5251 c0 -23 19 -36 70 -45 27 -5 55 -26 121 -94 84 -85 87 -90
123 -194 34 -97 64 -147 78 -132 4 3 -1 22 -9 42 l-15 37 36 -40 c20 -22 50
-59 68 -82 34 -46 54 -56 45 -22 -4 16 -2 19 11 13 9 -4 52 -14 94 -23 l77
-15 -4 -30 c-5 -39 -30 -171 -56 -296 -20 -99 -19 -72 5 90 15 106 11 240 -9
240 -7 0 -18 -42 -29 -117 -26 -181 -45 -341 -51 -418 -3 -38 -26 -150 -51
-248 -25 -98 -49 -200 -54 -225 -22 -108 -40 -308 -40 -457 0 -152 -14 -301
-46 -482 -8 -45 -14 -101 -14 -125 0 -24 -4 -70 -10 -103 -5 -33 -12 -98 -15
-145 -4 -47 -11 -119 -16 -160 -5 -41 -14 -129 -19 -195 -6 -66 -15 -160 -20
-210 -6 -49 -12 -111 -15 -137 -2 -25 -14 -81 -25 -125 -23 -87 -107 -340
-121 -363 -18 -32 -8 15 30 139 71 233 152 647 137 707 -10 37 -18 23 -23 -38
-4 -49 -21 -141 -57 -308 -37 -175 -83 -321 -103 -333 -8 -5 -11 -16 -8 -27 4
-11 -16 -89 -44 -177 -82 -257 -135 -493 -110 -493 6 0 9 -14 7 -32 -2 -18 2
-33 9 -35 15 -5 38 48 48 108 11 68 55 199 66 199 6 0 7 4 4 10 -7 12 103 344
116 348 5 2 23 15 40 29 55 47 76 109 95 288 6 53 9 63 13 41 3 -16 12 -31 19
-34 15 -5 15 -4 -4 49 -16 46 -16 62 6 369 6 74 12 173 15 220 8 151 36 415
46 432 10 20 24 135 39 333 5 77 17 187 25 245 8 58 17 121 19 140 3 19 11 64
20 100 15 66 43 244 49 313 2 22 10 43 18 48 11 7 12 11 1 17 -15 10 -8 63 35
257 29 134 69 372 83 491 7 66 15 93 31 110 19 21 20 24 5 53 -12 23 -23 31
-44 31 -15 0 -61 10 -102 21 -41 12 -95 22 -119 24 -39 2 -48 7 -72 41 -65 95
-88 136 -94 168 -9 44 -41 96 -60 96 -8 0 -15 -5 -15 -12 0 -6 -13 1 -30 17
-19 19 -26 32 -20 40 5 6 6 15 2 21 -14 20 -66 46 -96 48 -17 2 -43 6 -58 10
-24 7 -28 5 -28 -13z m495 -1587 c-10 -55 -19 -101 -21 -103 -7 -8 -4 22 11
104 8 44 14 86 15 94 0 8 3 12 6 9 3 -3 -2 -50 -11 -104z m-28 -151 c-3 -10
-5 -4 -5 12 0 17 2 24 5 18 2 -7 2 -21 0 -30z m-261 -2200 c-10 -26 -18 -8 -9
23 5 21 8 24 11 11 2 -10 1 -25 -2 -34z m-141 -253 c-19 -52 -34 -90 -34 -84
-1 6 10 44 24 85 34 100 35 102 39 98 3 -2 -11 -47 -29 -99z"/>
<path d="M7960 5167 c-41 -40 -108 -102 -149 -138 -41 -36 -70 -68 -64 -72 15
-10 180 133 240 209 49 61 58 74 51 74 -2 0 -37 -33 -78 -73z"/>
<path d="M5294 5205 c-4 -8 6 -31 20 -50 26 -33 86 -85 99 -85 16 0 4 27 -25
59 -24 25 -28 32 -13 26 36 -14 78 -18 71 -7 -5 9 -130 72 -142 72 -3 0 -7 -7
-10 -15z"/>
<path d="M5395 5200 c3 -5 8 -10 11 -10 2 0 4 5 4 10 0 6 -5 10 -11 10 -5 0
-7 -4 -4 -10z"/>
<path d="M8450 5180 c0 -5 5 -10 10 -10 6 0 10 5 10 10 0 6 -4 10 -10 10 -5 0
-10 -4 -10 -10z"/>
<path d="M2050 5096 c0 -8 -10 -16 -22 -18 -28 -4 -63 -64 -78 -133 -6 -27
-15 -101 -21 -164 l-9 -115 42 -38 c24 -20 46 -38 51 -38 4 0 12 -11 17 -24 5
-14 52 -53 117 -96 59 -40 138 -96 174 -126 36 -30 69 -54 73 -54 18 0 1 28
-41 67 l-48 44 38 -16 c37 -15 38 -15 28 4 -10 18 -53 45 -205 128 -77 43
-184 120 -199 145 -8 12 -4 38 16 99 102 324 108 349 83 349 -9 0 -16 -6 -16
-14z m-16 -60 c-3 -9 -10 -16 -15 -16 -6 0 -5 9 1 21 13 24 24 20 14 -5z m-48
-116 c-14 -68 -26 -100 -26 -71 0 23 32 152 36 148 3 -2 -2 -37 -10 -77z"/>
<path d="M8137 5072 c-9 -10 -17 -22 -17 -25 0 -7 -70 -119 -79 -127 -16 -14
-79 -211 -88 -276 -5 -36 -8 -41 -26 -36 l-21 5 21 -29 c14 -20 22 -53 27
-106 10 -118 33 -224 58 -269 13 -23 28 -50 33 -61 15 -29 50 -19 51 15 1 15
-3 27 -7 27 -5 0 -9 -4 -9 -10 0 -25 -21 -6 -40 38 -22 49 -55 190 -47 198 3
3 15 -12 28 -33 13 -21 48 -66 77 -101 45 -53 51 -66 41 -78 -11 -13 -9 -14
12 -10 18 4 34 -4 68 -35 l45 -40 -3 -132 c-2 -110 -5 -134 -19 -145 -14 -10
-14 -14 -3 -21 11 -7 11 -41 1 -212 -25 -429 -25 -649 1 -634 5 4 9 56 9 116
0 61 5 176 11 257 6 81 17 221 24 312 l12 165 2 -155 c6 -381 0 -531 -21 -557
-7 -9 -7 -13 2 -13 9 0 10 -16 6 -57 -12 -111 -16 -876 -6 -1047 5 -94 12
-277 15 -406 3 -129 10 -293 15 -365 6 -81 5 -131 -1 -133 -5 -2 -9 -10 -9
-18 0 -9 4 -13 9 -9 10 6 17 -48 26 -200 13 -234 27 -355 43 -355 13 0 14 22
8 163 -4 89 -10 209 -14 267 -4 58 -7 120 -6 138 1 17 2 45 3 62 1 22 5 28 16
24 9 -4 15 0 15 10 0 9 -7 16 -15 16 -12 0 -15 13 -15 55 0 44 3 55 16 55 9 0
14 6 11 13 -2 6 -9 11 -14 10 -6 -1 -12 84 -16 215 -10 313 -9 462 3 462 14 0
13 19 -2 34 -10 10 -13 182 -12 797 0 431 5 884 9 1007 5 148 5 222 -2 222
-13 0 -23 -82 -23 -199 0 -112 -10 -114 -19 -4 -4 56 -10 77 -19 75 -17 -3
-15 169 1 180 8 5 8 13 0 30 -7 13 -15 33 -18 46 -7 26 -25 30 -25 5 0 -24
-115 91 -191 190 -33 42 -64 77 -69 77 -6 0 -10 5 -10 10 0 20 27 -5 90 -82
62 -78 73 -87 85 -67 10 15 -15 69 -31 69 -13 0 -98 102 -100 120 -1 6 -2 17
-3 26 -1 11 -7 14 -17 10 -15 -6 -16 2 -11 71 6 89 9 105 30 156 11 26 20 35
31 31 9 -3 16 -1 16 5 0 6 -4 11 -10 11 -5 0 -10 5 -10 11 0 14 36 94 71 155
l29 52 88 -19 c188 -42 270 -58 341 -65 67 -6 73 -5 69 12 -1 10 -17 26 -35
37 -36 20 -196 52 -343 67 -52 6 -102 13 -111 15 -9 3 -23 -3 -32 -13z"/>
<path d="M5226 5011 c-4 -7 -5 -15 -2 -18 9 -9 19 4 14 18 -4 11 -6 11 -12 0z"/>
<path d="M7834 4959 c-47 -49 -204 -153 -204 -135 0 26 -14 19 -78 -36 -57
-50 -173 -146 -191 -158 -8 -5 -31 -45 -31 -54 0 -2 10 -6 23 -8 36 -5 57 -60
57 -153 0 -80 -16 -181 -65 -419 -28 -136 -55 -290 -55 -318 0 -10 4 -18 9
-18 10 0 23 51 45 180 34 196 38 217 56 300 42 192 45 356 6 411 -8 12 -12 28
-9 35 3 8 0 14 -7 14 -6 0 -8 -4 -5 -10 3 -5 1 -10 -4 -10 -6 0 -11 4 -11 9 0
10 166 131 315 231 84 57 160 122 176 152 14 26 7 22 -27 -13z"/>
<path d="M8420 4937 c28 -29 122 -58 225 -69 55 -7 110 -8 121 -4 18 7 18 8 0
21 -10 8 -44 17 -75 20 -56 6 -214 31 -261 42 -22 5 -23 4 -10 -10z"/>
<path d="M8813 4928 c-5 -7 -29 -58 -52 -113 -24 -55 -55 -126 -69 -158 l-26
-59 -15 29 -16 28 -3 -25 c-1 -14 -7 -45 -13 -69 -7 -32 -7 -46 1 -51 14 -8
-16 -743 -30 -748 -4 -2 -6 -12 -3 -23 5 -19 -16 -316 -42 -579 -15 -159 -13
-668 4 -775 12 -82 26 -380 26 -577 0 -97 3 -138 11 -138 7 0 16 8 20 18 11
24 12 387 1 641 -7 172 -7 215 4 221 10 7 10 11 -1 25 -11 13 -12 59 -6 243 4
125 9 243 11 262 1 19 8 103 15 185 6 83 17 220 24 305 l12 155 8 -198 c4
-110 5 -299 2 -420 -4 -122 -9 -325 -11 -450 -3 -126 -10 -237 -15 -246 -5
-10 -5 -22 -1 -27 9 -9 27 -938 22 -1124 -1 -58 -7 -109 -12 -115 -11 -12 -12
-28 0 -21 11 7 21 -79 21 -192 0 -73 -3 -94 -15 -98 -21 -8 -19 -21 5 -27 18
-5 20 -14 20 -86 0 -47 -4 -81 -10 -81 -5 0 -10 -4 -10 -10 0 -5 7 -7 15 -4
12 5 15 -3 15 -40 0 -40 3 -46 21 -46 19 0 20 4 15 48 -3 26 -8 97 -11 157 -2
61 -7 176 -11 258 -6 131 -5 147 10 147 9 0 16 5 16 10 0 6 -6 10 -14 10 -10
0 -15 23 -19 88 -14 235 -16 1145 -4 1787 7 328 5 498 -7 775 -20 456 -21 696
-3 703 11 4 12 -3 7 -32 -8 -43 4 -85 22 -79 6 2 33 65 59 139 26 74 59 163
73 198 32 79 35 126 7 118 -15 -4 -18 1 -17 31 1 37 -14 52 -31 30z"/>
<path d="M4295 4881 c-3 -6 2 -14 12 -18 10 -4 21 -11 26 -17 5 -8 10 -7 16 3
6 9 18 11 33 8 59 -15 484 -41 453 -28 -11 4 -69 11 -130 15 -105 7 -320 30
-377 42 -14 3 -29 0 -33 -5z"/>
<path d="M8266 4775 c-3 -9 0 -15 9 -15 16 0 20 16 6 24 -5 3 -11 -1 -15 -9z"/>
<path d="M5365 4721 c-6 -11 9 -23 19 -14 9 9 7 23 -3 23 -6 0 -12 -4 -16 -9z"/>
<path d="M8231 4694 c0 -11 3 -14 6 -6 3 7 2 16 -1 19 -3 4 -6 -2 -5 -13z"/>
<path d="M8885 4701 c-3 -5 -1 -12 5 -16 12 -7 30 2 30 16 0 12 -27 12 -35 0z"/>
<path d="M8485 4670 c3 -5 8 -10 11 -10 2 0 4 5 4 10 0 6 -5 10 -11 10 -5 0
-7 -4 -4 -10z"/>
<path d="M2920 4630 c0 -5 5 -10 10 -10 6 0 10 5 10 10 0 6 -4 10 -10 10 -5 0
-10 -4 -10 -10z"/>
<path d="M2450 4440 c0 -5 5 -10 10 -10 6 0 10 5 10 10 0 6 -4 10 -10 10 -5 0
-10 -4 -10 -10z"/>
<path d="M8140 4440 c0 -5 7 -10 16 -10 8 0 12 5 9 10 -3 6 -10 10 -16 10 -5
0 -9 -4 -9 -10z"/>
<path d="M8451 4423 c-7 -8 -10 -17 -7 -20 9 -9 29 13 25 25 -2 6 -10 3 -18
-5z"/>
<path d="M5710 4370 c0 -5 4 -10 9 -10 6 0 13 5 16 10 3 6 -1 10 -9 10 -9 0
-16 -4 -16 -10z"/>
<path d="M7365 4340 c-3 -5 -1 -10 4 -10 6 0 11 5 11 10 0 6 -2 10 -4 10 -3 0
-8 -4 -11 -10z"/>
<path d="M7596 4304 c-4 -15 -4 -29 -1 -32 8 -8 25 19 25 41 0 26 -17 20 -24
-9z"/>
<path d="M8040 4280 c0 -5 5 -10 10 -10 6 0 10 5 10 10 0 6 -4 10 -10 10 -5 0
-10 -4 -10 -10z"/>
<path d="M8770 4275 c-10 -12 -10 -15 4 -15 9 0 16 7 16 15 0 8 -2 15 -4 15
-2 0 -9 -7 -16 -15z"/>
<path d="M7976 4194 c-4 -10 -2 -22 3 -27 7 -7 13 -5 17 7 4 10 2 22 -3 27 -7
7 -13 5 -17 -7z"/>
<path d="M8405 4180 c4 -6 11 -8 16 -5 14 9 11 15 -7 15 -8 0 -12 -5 -9 -10z"/>
<path d="M2694 4099 c-3 -6 -1 -16 5 -22 8 -8 11 -5 11 11 0 24 -5 28 -16 11z"/>
<path d="M7912 4081 c4 -13 18 -16 19 -4 0 4 -5 9 -11 12 -7 2 -11 -2 -8 -8z"/>
<path d="M8185 4080 c-8 -13 -1 -24 14 -19 6 3 7 10 2 18 -6 10 -10 10 -16 1z"/>
<path d="M8520 4075 c-13 -16 -6 -50 9 -41 12 8 21 45 11 51 -4 3 -13 -2 -20
-10z"/>
<path d="M8435 3970 c-3 -5 1 -10 10 -10 9 0 13 5 10 10 -3 6 -8 10 -10 10 -2
0 -7 -4 -10 -10z"/>
<path d="M7815 3949 c-11 -17 1 -21 15 -4 8 9 8 15 2 15 -6 0 -14 -5 -17 -11z"/>
<path d="M8207 3939 c-9 -6 -17 -17 -17 -24 0 -23 28 -18 35 6 9 26 4 30 -18
18z"/>
<path d="M7985 3930 c-3 -5 -2 -10 4 -10 5 0 13 5 16 10 3 6 2 10 -4 10 -5 0
-13 -4 -16 -10z"/>
<path d="M7430 3890 c0 -5 5 -10 11 -10 5 0 7 5 4 10 -3 6 -8 10 -11 10 -2 0
-4 -4 -4 -10z"/>
<path d="M8520 3890 c0 -5 7 -10 16 -10 8 0 12 5 9 10 -3 6 -10 10 -16 10 -5
0 -9 -4 -9 -10z"/>
<path d="M7930 3860 c0 -5 5 -10 10 -10 6 0 10 5 10 10 0 6 -4 10 -10 10 -5 0
-10 -4 -10 -10z"/>
<path d="M8560 3855 c-7 -8 -8 -15 -2 -15 5 0 15 7 22 15 7 8 8 15 2 15 -5 0
-15 -7 -22 -15z"/>
<path d="M7814 3835 c13 -10 17 -21 12 -39 -8 -31 -2 -32 24 -8 21 19 17 30
-17 50 -30 16 -43 15 -19 -3z"/>
<path d="M8047 3829 c-9 -6 -17 -14 -17 -19 0 -16 30 -11 37 5 8 21 1 25 -20
14z"/>
<path d="M6280 3790 c0 -5 5 -10 10 -10 6 0 10 5 10 10 0 6 -4 10 -10 10 -5 0
-10 -4 -10 -10z"/>
<path d="M7360 3790 c0 -5 5 -10 10 -10 6 0 10 5 10 10 0 6 -4 10 -10 10 -5 0
-10 -4 -10 -10z"/>
<path d="M7650 3769 c0 -5 5 -7 10 -4 6 3 10 8 10 11 0 2 -4 4 -10 4 -5 0 -10
-5 -10 -11z"/>
<path d="M7910 3731 c0 -11 31 -24 39 -16 3 3 -1 10 -9 15 -19 12 -30 12 -30
1z"/>
<path d="M3030 3669 c0 -17 4 -28 10 -24 6 3 10 17 10 31 0 13 -4 24 -10 24
-5 0 -10 -14 -10 -31z"/>
<path d="M8123 3687 c2 -7 12 -14 23 -15 10 -2 29 -13 42 -25 17 -16 22 -17
22 -6 0 8 -20 25 -46 36 -25 12 -43 16 -41 10z"/>
<path d="M7190 3650 c0 -5 5 -10 10 -10 6 0 10 5 10 10 0 6 -4 10 -10 10 -5 0
-10 -4 -10 -10z"/>
<path d="M7776 3624 c-8 -21 -7 -22 28 -26 18 -2 31 2 34 11 3 9 0 11 -7 6 -7
-4 -20 0 -30 9 -17 16 -19 16 -25 0z"/>
<path d="M7735 3530 c-3 -5 -1 -10 4 -10 6 0 11 5 11 10 0 6 -2 10 -4 10 -3 0
-8 -4 -11 -10z"/>
<path d="M7608 3410 c-7 -24 -3 -38 8 -28 3 4 4 17 2 30 l-3 23 -7 -25z"/>
<path d="M7690 3350 c0 -5 5 -10 10 -10 6 0 10 5 10 10 0 6 -4 10 -10 10 -5 0
-10 -4 -10 -10z"/>
<path d="M7510 3329 c0 -5 5 -7 10 -4 6 3 10 8 10 11 0 2 -4 4 -10 4 -5 0 -10
-5 -10 -11z"/>
<path d="M7630 3321 c0 -6 5 -13 10 -16 6 -3 10 1 10 9 0 9 -4 16 -10 16 -5 0
-10 -4 -10 -9z"/>
<path d="M6870 3300 c0 -5 7 -7 15 -4 8 4 15 8 15 10 0 2 -7 4 -15 4 -8 0 -15
-4 -15 -10z"/>
<path d="M7685 3269 c-12 -19 5 -23 22 -6 16 16 16 17 1 17 -9 0 -20 -5 -23
-11z"/>
<path d="M7563 3208 c2 -7 10 -13 17 -13 7 0 15 6 18 13 2 7 -5 12 -18 12 -13
0 -20 -5 -17 -12z"/>
<path d="M5570 3156 c0 -21 21 -31 30 -15 5 7 6 17 4 21 -9 14 -34 9 -34 -6z"/>
<path d="M7465 3150 c3 -5 8 -10 11 -10 2 0 4 5 4 10 0 6 -5 10 -11 10 -5 0
-7 -4 -4 -10z"/>
<path d="M7445 3050 c-3 -5 -1 -10 4 -10 6 0 11 5 11 10 0 6 -2 10 -4 10 -3 0
-8 -4 -11 -10z"/>
<path d="M2947 3023 c-15 -15 -6 -225 14 -330 33 -175 68 -270 142 -385 66
-103 255 -284 275 -263 4 3 -33 45 -82 93 -49 47 -109 110 -133 139 -64 79
-138 233 -146 305 -2 18 -9 45 -15 60 -17 43 -45 266 -40 329 4 56 0 68 -15
52z"/>
<path d="M8730 3020 c0 -5 5 -10 10 -10 6 0 10 5 10 10 0 6 -4 10 -10 10 -5 0
-10 -4 -10 -10z"/>
<path d="M7615 3010 c-3 -5 -1 -10 4 -10 6 0 11 5 11 10 0 6 -2 10 -4 10 -3 0
-8 -4 -11 -10z"/>
<path d="M8181 3004 c0 -11 3 -14 6 -6 3 7 2 16 -1 19 -3 4 -6 -2 -5 -13z"/>
<path d="M7670 2999 c0 -5 5 -7 10 -4 6 3 10 8 10 11 0 2 -4 4 -10 4 -5 0 -10
-5 -10 -11z"/>
<path d="M7615 2970 c3 -5 8 -10 11 -10 2 0 4 5 4 10 0 6 -5 10 -11 10 -5 0
-7 -4 -4 -10z"/>
<path d="M7415 2960 c-3 -5 -2 -10 4 -10 5 0 13 5 16 10 3 6 2 10 -4 10 -5 0
-13 -4 -16 -10z"/>
<path d="M7592 2938 c6 -18 28 -21 28 -4 0 9 -7 16 -16 16 -9 0 -14 -5 -12
-12z"/>
<path d="M7385 2930 c3 -5 13 -10 21 -10 8 0 14 5 14 10 0 6 -9 10 -21 10 -11
0 -17 -4 -14 -10z"/>
<path d="M5600 2890 c0 -5 5 -10 10 -10 6 0 10 5 10 10 0 6 -4 10 -10 10 -5 0
-10 -4 -10 -10z"/>
<path d="M5287 2883 c-4 -6 0 -19 8 -29 11 -15 14 -16 15 -4 0 21 -16 44 -23
33z"/>
<path d="M7590 2861 c0 -6 5 -13 10 -16 6 -3 10 1 10 9 0 9 -4 16 -10 16 -5 0
-10 -4 -10 -9z"/>
<path d="M7595 2807 c-4 -10 -5 -21 -1 -24 10 -10 18 4 13 24 -4 17 -4 17 -12
0z"/>
<path d="M7463 2785 c-3 -9 -3 -18 0 -21 9 -9 27 6 27 22 0 19 -19 18 -27 -1z"/>
<path d="M7465 2740 c-3 -5 -1 -10 4 -10 6 0 11 5 11 10 0 6 -2 10 -4 10 -3 0
-8 -4 -11 -10z"/>
<path d="M7600 2710 c0 -5 5 -10 11 -10 5 0 7 5 4 10 -3 6 -8 10 -11 10 -2 0
-4 -4 -4 -10z"/>
<path d="M8710 2644 c0 -8 5 -12 10 -9 6 3 10 10 10 16 0 5 -4 9 -10 9 -5 0
-10 -7 -10 -16z"/>
<path d="M7470 2599 c0 -5 5 -7 10 -4 6 3 10 8 10 11 0 2 -4 4 -10 4 -5 0 -10
-5 -10 -11z"/>
<path d="M8800 2589 c0 -5 5 -7 10 -4 6 3 10 8 10 11 0 2 -4 4 -10 4 -5 0 -10
-5 -10 -11z"/>
<path d="M8780 2559 c0 -5 5 -7 10 -4 6 3 10 8 10 11 0 2 -4 4 -10 4 -5 0 -10
-5 -10 -11z"/>
<path d="M8392 2489 c2 -6 8 -10 13 -10 5 0 11 4 13 10 2 6 -4 11 -13 11 -9 0
-15 -5 -13 -11z"/>
<path d="M7407 2483 c-11 -10 -8 -43 3 -43 6 0 10 11 10 25 0 26 -2 29 -13 18z"/>
<path d="M8780 2476 c0 -9 5 -16 10 -16 6 0 10 4 10 9 0 6 -4 13 -10 16 -5 3
-10 -1 -10 -9z"/>
<path d="M8786 2441 c-4 -5 -2 -12 3 -15 5 -4 12 -2 15 3 4 5 2 12 -3 15 -5 4
-12 2 -15 -3z"/>
<path d="M7416 2402 c-9 -14 9 -31 23 -23 7 5 10 14 7 20 -8 13 -23 14 -30 3z"/>
<path d="M7470 2395 c-11 -13 -9 -15 15 -15 16 0 25 5 23 12 -7 19 -24 20 -38
3z"/>
<path d="M5150 2370 c0 -5 5 -10 10 -10 6 0 10 5 10 10 0 6 -4 10 -10 10 -5 0
-10 -4 -10 -10z"/>
<path d="M8836 2361 c-4 -5 -2 -12 3 -15 5 -4 12 -2 15 3 4 5 2 12 -3 15 -5 4
-12 2 -15 -3z"/>
<path d="M3044 2244 c-4 -14 -3 -53 0 -87 8 -74 35 -260 40 -279 49 -171 119
-361 152 -410 20 -31 21 -38 9 -38 -9 0 -13 -5 -10 -10 4 -6 12 -9 19 -8 16 4
116 -92 117 -112 0 -10 2 -11 5 -3 4 8 20 3 52 -17 39 -24 205 -100 218 -100
2 0 1 6 -2 14 -3 7 -26 25 -52 40 -57 32 -59 33 -152 89 -41 25 -91 63 -111
84 -40 42 -109 153 -109 175 0 8 -4 18 -8 24 -31 34 -111 370 -112 468 0 16
-7 34 -15 40 -10 8 -15 32 -16 84 -2 72 -13 94 -25 46z"/>
<path d="M7460 2262 c0 -15 32 -24 44 -12 7 7 7 10 -1 10 -6 0 -18 3 -27 6 -9
3 -16 2 -16 -4z"/>
<path d="M8456 2235 c-8 -23 -9 -23 19 -17 14 2 24 10 22 16 -6 18 -34 18 -41
1z"/>
<path d="M5390 2195 c0 -8 5 -15 10 -15 6 0 10 7 10 15 0 8 -4 15 -10 15 -5 0
-10 -7 -10 -15z"/>
<path d="M7470 2170 c0 -5 5 -10 11 -10 5 0 7 5 4 10 -3 6 -8 10 -11 10 -2 0
-4 -4 -4 -10z"/>
<path d="M8485 2150 c10 -11 20 -18 23 -15 7 6 -18 35 -31 35 -5 0 -2 -9 8
-20z"/>
<path d="M2937 2144 c-9 -9 4 -35 14 -28 5 3 9 12 9 20 0 14 -12 19 -23 8z"/>
<path d="M8850 2122 c0 -11 -6 -23 -12 -26 -7 -3 -2 -4 12 -3 27 2 36 37 13
45 -8 2 -13 -5 -13 -16z"/>
<path d="M8140 2115 c0 -8 2 -15 4 -15 2 0 6 7 10 15 3 8 1 15 -4 15 -6 0 -10
-7 -10 -15z"/>
<path d="M8526 2082 c-3 -6 -1 -14 5 -17 14 -9 20 -2 10 14 -6 8 -11 9 -15 3z"/>
<path d="M8181 2004 c0 -11 3 -14 6 -6 3 7 2 16 -1 19 -3 4 -6 -2 -5 -13z"/>
<path d="M3145 1979 c-10 -15 3 -25 16 -12 7 7 7 13 1 17 -6 3 -14 1 -17 -5z"/>
<path d="M8780 1980 c0 -5 6 -10 14 -10 8 0 18 5 21 10 3 6 -3 10 -14 10 -12
0 -21 -4 -21 -10z"/>
<path d="M3400 1950 c0 -5 5 -10 10 -10 6 0 10 5 10 10 0 6 -4 10 -10 10 -5 0
-10 -4 -10 -10z"/>
<path d="M3480 1935 c0 -9 5 -15 11 -13 6 2 11 8 11 13 0 5 -5 11 -11 13 -6 2
-11 -4 -11 -13z"/>
<path d="M8750 1880 c0 -5 6 -10 14 -10 8 0 18 5 21 10 3 6 -3 10 -14 10 -12
0 -21 -4 -21 -10z"/>
<path d="M7280 1870 c-12 -7 -12 -12 -3 -21 15 -15 26 -7 21 15 -2 11 -7 13
-18 6z"/>
<path d="M8830 1865 c-10 -12 -10 -15 3 -15 8 0 17 7 21 15 3 8 2 15 -3 15 -5
0 -14 -7 -21 -15z"/>
<path d="M4965 1861 c-6 -11 9 -23 19 -14 9 9 7 23 -3 23 -6 0 -12 -4 -16 -9z"/>
<path d="M8891 1854 c0 -11 3 -14 6 -6 3 7 2 16 -1 19 -3 4 -6 -2 -5 -13z"/>
<path d="M7180 1842 c0 -5 7 -17 15 -28 8 -10 15 -29 15 -40 0 -15 8 -23 24
-26 21 -4 23 -2 16 16 -16 42 -45 86 -57 86 -7 0 -13 -4 -13 -8z"/>
<path d="M7338 1800 c2 -22 9 -40 14 -40 6 0 8 13 4 32 -10 48 -22 53 -18 8z"/>
<path d="M8515 1830 c-8 -12 20 -24 35 -15 6 3 8 11 5 16 -8 12 -32 12 -40 -1z"/>
<path d="M5510 1731 c0 -118 -30 -341 -72 -541 -11 -52 -30 -158 -43 -235 -13
-77 -27 -148 -30 -157 -4 -10 -3 -18 3 -18 21 0 91 280 121 485 40 264 56 545
31 545 -6 0 -10 -33 -10 -79z"/>
<path d="M5475 1750 c-3 -5 -1 -10 4 -10 6 0 11 5 11 10 0 6 -2 10 -4 10 -3 0
-8 -4 -11 -10z"/>
<path d="M8767 1753 c-4 -3 -7 -12 -7 -20 0 -15 26 -18 34 -4 7 11 -18 33 -27
24z"/>
<path d="M3080 1710 c0 -5 5 -10 10 -10 6 0 10 5 10 10 0 6 -4 10 -10 10 -5 0
-10 -4 -10 -10z"/>
<path d="M3560 1610 c0 -5 5 -10 10 -10 6 0 10 5 10 10 0 6 -4 10 -10 10 -5 0
-10 -4 -10 -10z"/>
<path d="M7075 1600 c-3 -5 -1 -10 4 -10 6 0 11 5 11 10 0 6 -2 10 -4 10 -3 0
-8 -4 -11 -10z"/>
<path d="M7070 1530 c-10 -6 -11 -13 -5 -19 7 -7 19 -3 35 9 23 18 23 20 5 20
-11 0 -27 -5 -35 -10z"/>
<path d="M8220 1530 c0 -25 16 -44 25 -30 4 7 0 19 -9 28 -13 14 -16 14 -16 2z"/>
<path d="M4480 1521 c0 -6 5 -13 10 -16 6 -3 10 1 10 9 0 9 -4 16 -10 16 -5 0
-10 -4 -10 -9z"/>
<path d="M4900 1404 c0 -8 5 -12 10 -9 6 4 8 11 5 16 -9 14 -15 11 -15 -7z"/>
<path d="M4346 1391 c-4 -7 -5 -15 -2 -18 9 -9 19 4 14 18 -4 11 -6 11 -12 0z"/>
<path d="M3180 1375 c0 -8 5 -15 10 -15 6 0 10 7 10 15 0 8 -4 15 -10 15 -5 0
-10 -7 -10 -15z"/>
<path d="M8514 1376 c-3 -8 -4 -22 -2 -30 2 -11 6 -9 15 9 6 15 7 27 2 31 -5
3 -12 -2 -15 -10z"/>
<path d="M3390 1373 c0 -20 117 -80 219 -112 71 -23 91 -26 91 -12 0 5 -37 21
-82 36 -46 15 -114 42 -151 61 -73 37 -77 38 -77 27z"/>
<path d="M8505 1280 c3 -5 8 -10 11 -10 2 0 4 5 4 10 0 6 -5 10 -11 10 -5 0
-7 -4 -4 -10z"/>
<path d="M3290 1255 c-10 -12 -10 -19 -2 -27 14 -14 17 -11 26 20 8 25 -5 29
-24 7z"/>
<path d="M5350 1260 c0 -5 5 -10 10 -10 6 0 10 5 10 10 0 6 -4 10 -10 10 -5 0
-10 -4 -10 -10z"/>
<path d="M7153 1241 c6 -16 14 -28 19 -25 9 6 -6 47 -20 52 -8 2 -7 -5 1 -27z"/>
<path d="M8565 1259 c-4 -6 -5 -12 -2 -15 2 -3 7 2 10 11 7 17 1 20 -8 4z"/>
<path d="M7121 1234 c0 -11 3 -14 6 -6 3 7 2 16 -1 19 -3 4 -6 -2 -5 -13z"/>
<path d="M3740 1231 c0 -5 5 -13 10 -16 6 -3 10 -2 10 4 0 5 -4 13 -10 16 -5
3 -10 2 -10 -4z"/>
<path d="M8586 1232 c-3 -6 1 -13 10 -16 23 -9 28 -2 10 13 -8 7 -17 8 -20 3z"/>
<path d="M3395 1208 c25 -82 107 -185 190 -239 36 -23 65 -46 65 -51 0 -5 4
-7 9 -4 19 12 132 -45 218 -111 51 -39 90 -73 88 -77 -3 -3 -2 -4 1 -1 4 2 16
-2 28 -10 33 -24 37 -18 30 38 -8 61 -9 63 -26 49 -10 -8 -25 3 -63 46 -27 31
-42 53 -32 49 11 -4 17 -2 17 8 0 7 -16 19 -36 25 -19 7 -38 19 -41 27 -3 8
-15 25 -27 37 -12 13 -41 44 -65 69 -64 69 -71 57 -11 -19 l52 -67 -83 44
c-57 30 -107 67 -158 117 -41 40 -78 71 -83 70 -18 -6 84 -124 200 -230 35
-32 60 -58 55 -58 -22 0 -129 69 -138 88 -5 12 -15 20 -22 18 -6 -3 -17 2 -23
10 -9 10 -9 14 -1 14 6 0 11 5 11 11 0 8 -6 7 -16 -2 -14 -12 -20 -9 -41 16
-30 37 -73 119 -73 140 0 8 -7 15 -16 15 -11 0 -14 -6 -9 -22z m352 -246 c7
-9 24 -16 38 -17 15 0 41 -16 62 -37 l37 -37 -48 14 c-32 10 -71 35 -112 71
-35 31 -64 58 -64 61 0 8 74 -39 87 -55z m203 -169 l45 -46 -45 32 c-25 17
-56 41 -70 52 l-25 20 25 -6 c14 -4 45 -27 70 -52z"/>
<path d="M3713 1177 c5 -15 37 -22 37 -9 0 5 -9 12 -21 15 -13 3 -19 1 -16 -6z"/>
<path d="M3846 1153 c-8 -21 -7 -25 4 -18 6 4 19 1 28 -6 9 -7 14 -10 10 -5
-4 5 -3 16 1 25 7 12 4 16 -14 17 -13 1 -26 -5 -29 -13z"/>
<path d="M6825 1160 c3 -5 8 -10 11 -10 2 0 4 5 4 10 0 6 -5 10 -11 10 -5 0
-7 -4 -4 -10z"/>
<path d="M3260 1140 c0 -5 5 -10 10 -10 6 0 10 5 10 10 0 6 -4 10 -10 10 -5 0
-10 -4 -10 -10z"/>
<path d="M8760 1140 c0 -5 5 -10 10 -10 6 0 10 5 10 10 0 6 -4 10 -10 10 -5 0
-10 -4 -10 -10z"/>
<path d="M3900 1101 c0 -5 5 -13 10 -16 6 -3 10 -2 10 4 0 5 -4 13 -10 16 -5
3 -10 2 -10 -4z"/>
<path d="M5120 1074 c0 -21 4 -33 10 -29 6 3 10 19 10 36 0 16 -4 29 -10 29
-5 0 -10 -16 -10 -36z"/>
<path d="M6465 1090 c3 -5 8 -10 11 -10 2 0 4 5 4 10 0 6 -5 10 -11 10 -5 0
-7 -4 -4 -10z"/>
<path d="M8255 1080 c-3 -5 -1 -10 4 -10 6 0 11 5 11 10 0 6 -2 10 -4 10 -3 0
-8 -4 -11 -10z"/>
<path d="M4937 1074 c-14 -14 -7 -35 11 -32 9 2 17 10 17 17 0 16 -18 25 -28
15z"/>
<path d="M6810 1065 c-10 -12 -10 -15 3 -15 19 0 31 16 18 24 -5 3 -14 -1 -21
-9z"/>
<path d="M8180 1059 c0 -5 5 -7 10 -4 6 3 10 8 10 11 0 2 -4 4 -10 4 -5 0 -10
-5 -10 -11z"/>
<path d="M3450 1040 c0 -5 5 -10 11 -10 5 0 7 5 4 10 -3 6 -8 10 -11 10 -2 0
-4 -4 -4 -10z"/>
<path d="M3960 1020 c0 -11 5 -20 10 -20 6 0 10 9 10 20 0 11 -4 20 -10 20 -5
0 -10 -9 -10 -20z"/>
<path d="M3835 1020 c3 -5 8 -10 11 -10 2 0 4 5 4 10 0 6 -5 10 -11 10 -5 0
-7 -4 -4 -10z"/>
<path d="M8520 1010 c0 -5 5 -10 11 -10 5 0 7 5 4 10 -3 6 -8 10 -11 10 -2 0
-4 -4 -4 -10z"/>
<path d="M4146 978 c-9 -12 -16 -26 -16 -31 0 -13 29 12 41 35 14 26 -6 23
-25 -4z"/>
<path d="M4625 979 c-4 -6 -5 -12 -2 -15 2 -3 7 2 10 11 7 17 1 20 -8 4z"/>
<path d="M5295 979 c-12 -19 5 -23 22 -6 16 16 16 17 1 17 -9 0 -20 -5 -23
-11z"/>
<path d="M3444 969 c-3 -6 -1 -16 5 -22 8 -8 11 -5 11 11 0 24 -5 28 -16 11z"/>
<path d="M6536 942 c-3 -6 -1 -14 5 -17 15 -10 25 3 12 16 -7 7 -13 7 -17 1z"/>
<path d="M8520 940 c0 -5 5 -10 11 -10 5 0 7 5 4 10 -3 6 -8 10 -11 10 -2 0
-4 -4 -4 -10z"/>
<path d="M4171 924 c0 -11 3 -14 6 -6 3 7 2 16 -1 19 -3 4 -6 -2 -5 -13z"/>
<path d="M5180 922 c0 -10 -5 -23 -12 -30 -7 -7 -8 -12 -4 -12 12 0 35 32 36
48 0 6 -4 12 -10 12 -5 0 -10 -8 -10 -18z"/>
<path d="M8573 920 c-3 -11 -9 -20 -14 -20 -5 0 -9 -4 -9 -10 0 -5 9 -10 20
-10 16 0 20 7 20 30 0 34 -9 40 -17 10z"/>
<path d="M3460 926 c0 -2 7 -9 15 -16 12 -10 15 -10 15 4 0 9 -7 16 -15 16 -8
0 -15 -2 -15 -4z"/>
<path d="M8190 909 c0 -5 5 -7 10 -4 6 3 10 8 10 11 0 2 -4 4 -10 4 -5 0 -10
-5 -10 -11z"/>
<path d="M5296 875 c-9 -26 -7 -32 5 -12 6 10 9 21 6 23 -2 3 -7 -2 -11 -11z"/>
<path d="M8790 880 c0 -5 5 -10 10 -10 6 0 10 5 10 10 0 6 -4 10 -10 10 -5 0
-10 -4 -10 -10z"/>
<path d="M8216 873 c-9 -9 -7 -33 3 -33 12 0 22 28 12 34 -5 3 -11 3 -15 -1z"/>
<path d="M8290 870 c0 -5 5 -10 10 -10 6 0 10 5 10 10 0 6 -4 10 -10 10 -5 0
-10 -4 -10 -10z"/>
<path d="M4670 856 c0 -18 17 -29 30 -21 8 5 7 11 -1 21 -15 18 -29 18 -29 0z"/>
<path d="M4891 844 c0 -11 3 -14 6 -6 3 7 2 16 -1 19 -3 4 -6 -2 -5 -13z"/>
<path d="M8260 840 c0 -5 5 -10 10 -10 6 0 10 5 10 10 0 6 -4 10 -10 10 -5 0
-10 -4 -10 -10z"/>
<path d="M6395 830 c3 -5 8 -10 11 -10 2 0 4 5 4 10 0 6 -5 10 -11 10 -5 0 -7
-4 -4 -10z"/>
<path d="M8895 830 c-8 -13 4 -50 16 -50 5 0 9 14 9 30 0 30 -13 40 -25 20z"/>
<path d="M3700 814 c0 -8 5 -12 10 -9 6 4 8 11 5 16 -9 14 -15 11 -15 -7z"/>
<path d="M5490 820 c0 -5 5 -10 11 -10 5 0 7 5 4 10 -3 6 -8 10 -11 10 -2 0
-4 -4 -4 -10z"/>
<path d="M4205 810 c-3 -5 -1 -10 4 -10 6 0 11 5 11 10 0 6 -2 10 -4 10 -3 0
-8 -4 -11 -10z"/>
<path d="M3821 794 c0 -11 3 -14 6 -6 3 7 2 16 -1 19 -3 4 -6 -2 -5 -13z"/>
<path d="M5286 801 c-4 -7 -5 -15 -2 -18 9 -9 19 4 14 18 -4 11 -6 11 -12 0z"/>
<path d="M5915 760 c-3 -5 -1 -10 4 -10 6 0 11 5 11 10 0 6 -2 10 -4 10 -3 0
-8 -4 -11 -10z"/>
<path d="M5351 734 c0 -11 3 -14 6 -6 3 7 2 16 -1 19 -3 4 -6 -2 -5 -13z"/>
<path d="M4801 724 c0 -11 3 -14 6 -6 3 7 2 16 -1 19 -3 4 -6 -2 -5 -13z"/>
<path d="M4360 695 c0 -8 5 -15 10 -15 6 0 10 7 10 15 0 8 -4 15 -10 15 -5 0
-10 -7 -10 -15z"/>
<path d="M4776 681 c-3 -5 1 -11 9 -15 9 -3 15 0 15 9 0 16 -16 20 -24 6z"/>
<path d="M8790 680 c0 -5 5 -10 11 -10 5 0 7 5 4 10 -3 6 -8 10 -11 10 -2 0
-4 -4 -4 -10z"/>
<path d="M8900 661 c-7 -15 -7 -21 0 -21 12 0 25 28 17 36 -3 3 -10 -4 -17
-15z"/>
<path d="M8865 640 c3 -5 8 -10 11 -10 2 0 4 5 4 10 0 6 -5 10 -11 10 -5 0 -7
-4 -4 -10z"/>
<path d="M4512 631 c4 -13 18 -16 19 -4 0 4 -5 9 -11 12 -7 2 -11 -2 -8 -8z"/>
<path d="M5581 621 c-10 -6 -10 -10 -1 -16 15 -9 80 3 80 15 0 12 -60 13 -79
1z"/>
<path d="M3986 612 c-3 -6 -1 -14 5 -17 15 -10 25 3 12 16 -7 7 -13 7 -17 1z"/>
<path d="M5070 616 c0 -2 7 -9 15 -16 12 -10 15 -10 15 4 0 9 -7 16 -15 16 -8
0 -15 -2 -15 -4z"/>
<path d="M5970 610 c0 -5 -10 -9 -22 -7 -15 1 -23 -3 -23 -13 0 -24 35 -24 56
1 23 27 23 29 4 29 -8 0 -15 -4 -15 -10z"/>
<path d="M4740 595 c0 -8 5 -15 10 -15 6 0 10 7 10 15 0 8 -4 15 -10 15 -5 0
-10 -7 -10 -15z"/>
<path d="M8670 594 c0 -8 5 -12 10 -9 6 4 8 11 5 16 -9 14 -15 11 -15 -7z"/>
<path d="M4772 580 c-7 -11 -10 -20 -6 -20 13 0 44 21 44 30 0 17 -25 11 -38
-10z"/>
<path d="M5015 590 c-3 -5 -1 -10 4 -10 6 0 11 5 11 10 0 6 -2 10 -4 10 -3 0
-8 -4 -11 -10z"/>
<path d="M8853 573 c-18 -7 -16 -23 2 -23 8 0 15 7 15 15 0 8 -1 15 -2 14 -2
0 -9 -3 -15 -6z"/>
<path d="M4370 533 c0 -10 5 -25 10 -33 7 -11 10 -7 10 18 0 17 -4 32 -10 32
-5 0 -10 -8 -10 -17z"/>
<path d="M4970 526 c0 -9 5 -16 10 -16 6 0 10 4 10 9 0 6 -4 13 -10 16 -5 3
-10 -1 -10 -9z"/>
<path d="M4670 526 c0 -2 8 -10 18 -17 15 -13 16 -12 3 4 -13 16 -21 21 -21
13z"/>
<path d="M8420 521 c0 -13 26 -32 33 -24 8 7 -11 33 -24 33 -5 0 -9 -4 -9 -9z"/>
<path d="M5280 494 c0 -8 5 -12 10 -9 6 3 10 10 10 16 0 5 -4 9 -10 9 -5 0
-10 -7 -10 -16z"/>
<path d="M5656 503 c-11 -11 -6 -23 9 -23 8 0 15 4 15 9 0 13 -16 22 -24 14z"/>
<path d="M8550 501 c0 -6 5 -13 10 -16 6 -3 10 1 10 9 0 9 -4 16 -10 16 -5 0
-10 -4 -10 -9z"/>
<path d="M4600 490 c0 -5 4 -10 9 -10 6 0 13 5 16 10 3 6 -1 10 -9 10 -9 0
-16 -4 -16 -10z"/>
<path d="M5467 493 c-14 -13 -6 -33 13 -33 13 0 20 7 20 20 0 19 -20 27 -33
13z"/>
<path d="M4437 471 c3 -12 9 -21 14 -21 14 0 11 16 -5 29 -12 10 -13 8 -9 -8z"/>
<path d="M4870 455 c0 -8 4 -15 10 -15 5 0 7 7 4 15 -4 8 -8 15 -10 15 -2 0
-4 -7 -4 -15z"/>
<path d="M8260 460 c20 -13 33 -13 25 0 -3 6 -14 10 -23 10 -15 0 -15 -2 -2
-10z"/>
<path d="M8652 458 c6 -18 28 -21 28 -4 0 9 -7 16 -16 16 -9 0 -14 -5 -12 -12z"/>
<path d="M5278 443 c7 -3 16 -2 19 1 4 3 -2 6 -13 5 -11 0 -14 -3 -6 -6z"/>
<path d="M8620 416 c0 -8 5 -18 10 -21 6 -3 10 3 10 14 0 12 -4 21 -10 21 -5
0 -10 -6 -10 -14z"/>
<path d="M8530 410 c0 -5 9 -10 21 -10 11 0 17 5 14 10 -3 6 -13 10 -21 10 -8
0 -14 -4 -14 -10z"/>
</g>
</svg>
