<svg width="400" height="400" viewBox="0 0 400 400" fill="none" xmlns="http://www.w3.org/2000/svg">
<path d="M112.5 141.5L103.5 212.5L107.5 246.5M128 226L131.5 141.5M281.5 138.5L277.5 226M295.5 138.5C294.5 160.5 293.1 212.9 295.5 246.5" stroke="black" stroke-width="5"/>
<path d="M92 138.5C83.6 159.7 80.5 135 80 120C108.998 105.639 120.938 92.581 135.5 66.5C191.179 61.0184 217.819 60.0813 255.5 63C275.896 92.5507 287.514 103.215 312 112.078L315.5 142.5C315.436 146.502 312.167 145.437 297.5 134.5C290.77 146.447 286.294 146.561 277 134.5C270.815 149.919 266.375 149.805 257.5 141C251.997 152.704 247.637 153.307 237 141C229.334 152.737 223.81 153.051 211 138.5C204.373 151.979 199.834 152.482 190 138.5C182.855 153.799 178.428 153.318 170 141C162.311 152.897 157.838 153.803 149.5 142.5C141.846 150.418 138.069 151.493 133 142.5C120.873 154.515 110.453 144.22 111.5 138.5C105.1 148.9 95.8333 142.833 92 138.5Z" fill="#96E6D7"/>
<path d="M80 120C80.5 135 83.6 159.7 92 138.5C95.8333 142.833 105.1 148.9 111.5 138.5C110.453 144.22 120.873 154.515 133 142.5C138.069 151.493 141.846 150.418 149.5 142.5C157.838 153.803 162.311 152.897 170 141C178.428 153.318 182.855 153.799 190 138.5C199.834 152.482 204.373 151.979 211 138.5C223.81 153.051 229.334 152.737 237 141C247.637 153.307 251.997 152.704 257.5 141C266.375 149.805 270.815 149.919 277 134.5C286.294 146.561 290.77 146.447 297.5 134.5C312.167 145.437 315.436 146.502 315.5 142.5L312 112.078M80 120C153.465 128.445 196.588 121.058 312 112.078M80 120C108.998 105.639 120.938 92.581 135.5 66.5C191.179 61.0184 217.819 60.0813 255.5 63C275.896 92.5507 287.514 103.215 312 112.078" stroke="black" stroke-width="4"/>
<path d="M92.5 259L140 208L271.5 203.5L308 253.5C306.154 253.473 304.321 253.523 302.5 253.5L303 268C303 268 306.996 267.709 308 267.625L305 289C304.165 289.042 303.332 289.083 302.5 289.123L305 308.5C304.621 322.915 303.729 328.435 301 334C299.177 334.211 297.343 334.411 295.5 334.6V344.5C238.664 344.457 184.5 345.907 154 344.453C123.5 343 119.814 344.477 100 344.5V333.17C96.1052 332.9 93.4046 332.666 92.5 332.5L94 311.5L98.5751 312.567L101.5 295.698C100.503 295.797 99.5028 295.897 98.5 296L94 269.705L97 258.787C95.511 258.857 94.0111 258.928 92.5 259Z" fill="#B38052"/>
<path d="M92.5 269.705C94.5198 269.775 92.0196 269.638 94 269.705M94 269.705L98.5 296C99.5028 295.897 100.503 295.797 101.5 295.698M94 269.705C181.784 272.688 218 269.5 303 268M94 269.705L97 258.787M101.5 295.698L98.5751 312.567M101.5 295.698C175.057 288.428 233.461 292.427 302.5 289.123M98.5751 312.567L98.5 313C99.0024 312.966 99.5024 312.932 100 312.899M98.5751 312.567L94 311.5L92.5 332.5C93.4046 332.666 96.1052 332.9 100 333.17M98.5751 312.567L100 312.899M305 308.5C260.424 315.911 242.103 316.308 213 315C168.155 310.712 143.104 310.021 100 312.899M305 308.5L302.5 289.123M305 308.5C304.621 322.915 303.729 328.435 301 334C299.177 334.211 297.343 334.411 295.5 334.6M302.5 289.123C303.332 289.083 304.165 289.042 305 289L308 267.625C306.996 267.709 303 268 303 268M100 333.17C114.617 334.185 146.056 335.706 162.5 336C182.621 336.36 242.871 339.991 295.5 334.6M100 333.17V344.5C119.814 344.477 123.5 343 154 344.453C184.5 345.907 238.664 344.457 295.5 344.5V334.6M302.5 253.5C304.321 253.523 306.154 253.473 308 253.5L271.5 203.5L140 208L92.5 259C94.0111 258.928 95.511 258.857 97 258.787M302.5 253.5C237.94 252.692 187.835 254.498 97 258.787M302.5 253.5L303 268" stroke="black" stroke-width="4"/>
<path d="M91 139.5L92.5 122.5C104.833 115.5 132.3 94.4 143.5 66M111 141.5L113.5 123.5C123.5 113.333 145.2 87.4 152 65M131.5 144.5L133 123.5C140.5 113.5 156.6 87.6 161 64M149 143L150.5 123.5C156.333 110.5 168.3 80.2 169.5 63M169.5 141.5V123.5C172.833 110 179.7 79 180.5 63M189.5 139.5V122.5V62M210.5 139.5V120.5C208.333 115.167 202.8 96 198 62M237 141.5L235 119C229.333 112.333 216.1 91.6 208.5 62M257.5 141.5L254 116.5C248 110.167 232.8 90.3 220 61.5M277 134.5L274.5 115C266.167 108.667 246 89.1 232 61.5M297.5 134.5L296 113.5C287.5 111.333 265 98 243 62" stroke="black" stroke-width="2"/>
</svg>
